SplineFontDB: 3.0
FontName: AllertaStencil-Regular
FullName: Allerta Stencil Regular
FamilyName: Allerta Stencil
Weight: Regular
Copyright: Copyright (c) 2009, Matt McInerney <matt@pixelspread.com> with Reserved Font Name Allerta.
Version: 1.02
ItalicAngle: 0
UnderlinePosition: -51
UnderlineWidth: 51
Ascent: 768
Descent: 256
sfntRevision: 0x00010000
LayerCount: 2
Layer: 0 1 "Back"  1
Layer: 1 1 "Fore"  0
XUID: [1021 288 713564382 10847311]
FSType: 0
OS2Version: 3
OS2_WeightWidthSlopeOnly: 0
OS2_UseTypoMetrics: 1
CreationTime: 1264307234
ModificationTime: 1317376991
PfmFamily: 81
TTFWeight: 400
TTFWidth: 5
LineGap: 0
VLineGap: 0
Panose: 0 0 0 0 0 0 0 0 0 0
OS2TypoAscent: 1057
OS2TypoAOffset: 0
OS2TypoDescent: -252
OS2TypoDOffset: 0
OS2TypoLinegap: 0
OS2WinAscent: 1057
OS2WinAOffset: 0
OS2WinDescent: 252
OS2WinDOffset: 0
HheadAscent: 1057
HheadAOffset: 0
HheadDescent: -252
HheadDOffset: 0
OS2SubXSize: 717
OS2SubYSize: 666
OS2SubXOff: 0
OS2SubYOff: 143
OS2SupXSize: 717
OS2SupYSize: 666
OS2SupXOff: 0
OS2SupYOff: 488
OS2StrikeYSize: 51
OS2StrikeYPos: 256
OS2Vendor: 'pyrs'
OS2CodePages: 00000001.00000000
OS2UnicodeRanges: 80000027.08000002.14000000.00000000
Lookup: 258 0 0 "'kern' Horizontal Kerning in Latin lookup 0"  {"'kern' Horizontal Kerning in Latin lookup 0 subtable"  } ['kern' ('latn' <'dflt' > ) ]
MarkAttachClasses: 1
DEI: 91125
TtTable: prep
PUSHW_1
 511
SCANCTRL
PUSHB_1
 1
SCANTYPE
SVTCA[y-axis]
MPPEM
PUSHB_1
 8
LT
IF
PUSHB_2
 1
 1
INSTCTRL
EIF
PUSHB_2
 70
 6
CALL
IF
POP
PUSHB_1
 16
EIF
MPPEM
PUSHB_1
 20
GT
IF
POP
PUSHB_1
 128
EIF
SCVTCI
PUSHB_1
 6
CALL
NOT
IF
EIF
PUSHB_1
 20
CALL
EndTTInstrs
TtTable: fpgm
PUSHB_1
 0
FDEF
PUSHB_1
 0
SZP0
MPPEM
PUSHB_1
 42
LT
IF
PUSHB_1
 74
SROUND
EIF
PUSHB_1
 0
SWAP
MIAP[rnd]
RTG
PUSHB_1
 6
CALL
IF
RTDG
EIF
MPPEM
PUSHB_1
 42
LT
IF
RDTG
EIF
DUP
MDRP[rp0,rnd,grey]
PUSHB_1
 1
SZP0
MDAP[no-rnd]
RTG
ENDF
PUSHB_1
 1
FDEF
DUP
MDRP[rp0,min,white]
PUSHB_1
 12
CALL
ENDF
PUSHB_1
 2
FDEF
MPPEM
GT
IF
RCVT
SWAP
EIF
POP
ENDF
PUSHB_1
 3
FDEF

StartChar: exclam
Encoding: 33 33 4
Width: 292
GlyphClass: 2
Flags: W
LayerCount: 2
Fore
SplineSet
190 204 m 1,0,-1
 101 204 l 1,1,-1
 85 737 l 1,2,-1
 207 737 l 1,3,-1
 190 204 l 1,0,-1
218 68 m 256,4,5
 218 38 218 38 197 17 c 128,-1,6
 176 -4 176 -4 146 -4 c 256,7,8
 116 -4 116 -4 95.5 17 c 128,-1,9
 75 38 75 38 75 68 c 256,10,11
 75 98 75 98 96 118.5 c 128,-1,12
 117 139 117 139 146 139 c 0,13,14
 176 139 176 139 197 118.5 c 128,-1,15
 218 98 218 98 218 68 c 256,4,5
EndSplineSet
EndChar

StartChar: quotedbl
Encoding: 34 34 5
Width: 449
GlyphClass: 2
Flags: W
LayerCount: 2
Fore
SplineSet
167 564 m 1,0,-1
 98 564 l 1,1,-1
 82 737 l 1,2,-1
 183 737 l 1,3,-1
 167 564 l 1,0,-1
351 564 m 1,4,-1
 283 564 l 1,5,-1
 266 737 l 1,6,-1
 368 737 l 1,7,-1
 351 564 l 1,4,-1
EndSplineSet
EndChar

StartChar: dollar
Encoding: 36 36 6
Width: 542
GlyphClass: 2
Flags: W
LayerCount: 2
Fore
SplineSet
200 547 m 0,0,1
 200 507 200 507 223 482.5 c 128,-1,2
 246 458 246 458 280 439.5 c 128,-1,3
 314 421 314 421 354 403.5 c 128,-1,4
 394 386 394 386 428.5 361 c 128,-1,5
 463 336 463 336 486 298.5 c 128,-1,6
 509 261 509 261 509 202 c 0,7,8
 509 167 509 167 496.5 134 c 128,-1,9
 484 101 484 101 460.5 74 c 128,-1,10
 437 47 437 47 404 27.5 c 128,-1,11
 371 8 371 8 328 1 c 1,12,-1
 328 -97 l 1,13,-1
 247 -97 l 1,14,-1
 247 -3 l 1,15,16
 204 -1 204 -1 158 11 c 128,-1,17
 112 23 112 23 81 49 c 1,18,-1
 102 135 l 1,19,20
 116 127 116 127 137.5 119.5 c 128,-1,21
 159 112 159 112 182 105.5 c 128,-1,22
 205 99 205 99 228 95 c 128,-1,23
 251 91 251 91 271 91 c 0,24,25
 332 91 332 91 364.5 119.5 c 128,-1,26
 397 148 397 148 397 204 c 0,27,28
 397 238 397 238 374 262 c 128,-1,29
 351 286 351 286 316.5 305.5 c 128,-1,30
 282 325 282 325 242 344.5 c 128,-1,31
 202 364 202 364 167 390.5 c 128,-1,32
 132 417 132 417 109 453 c 128,-1,33
 86 489 86 489 86 543 c 0,34,35
 86 584 86 584 99.5 618 c 128,-1,36
 113 652 113 652 136 677.5 c 128,-1,37
 159 703 159 703 190.5 719.5 c 128,-1,38
 222 736 222 736 258 743 c 1,39,-1
 258 829 l 1,40,-1
 339 829 l 1,41,-1
 339 748 l 1,42,43
 378 746 378 746 416 737.5 c 128,-1,44
 454 729 454 729 478 713 c 1,45,46
 472 700 472 700 464 684.5 c 128,-1,47
 456 669 456 669 449 655.5 c 128,-1,48
 442 642 442 642 437 633 c 128,-1,49
 432 624 432 624 431 623 c 1,50,51
 425 626 425 626 417.5 631 c 128,-1,52
 410 636 410 636 396 641 c 128,-1,53
 382 646 382 646 359 648 c 128,-1,54
 336 650 336 650 300 647 c 0,55,56
 280 645 280 645 262 635.5 c 128,-1,57
 244 626 244 626 230 612 c 128,-1,58
 216 598 216 598 208 580.5 c 128,-1,59
 200 563 200 563 200 547 c 0,0,1
EndSplineSet
EndChar

StartChar: percent
Encoding: 37 37 7
Width: 805
GlyphClass: 2
Flags: W
LayerCount: 2
Fore
SplineSet
169 449 m 1,0,1
 146 453 146 453 127 465.5 c 128,-1,2
 108 478 108 478 93 497 c 128,-1,3
 78 516 78 516 69 541 c 128,-1,4
 60 566 60 566 60 595 c 256,5,6
 60 624 60 624 69 648.5 c 128,-1,7
 78 673 78 673 93 692 c 128,-1,8
 108 711 108 711 127 723 c 128,-1,9
 146 735 146 735 169 739 c 1,10,-1
 169 677 l 1,11,12
 150 670 150 670 137 649 c 128,-1,13
 124 628 124 628 124 595 c 256,14,15
 124 562 124 562 137 540.5 c 128,-1,16
 150 519 150 519 169 512 c 1,17,-1
 169 449 l 1,0,1
315 595 m 256,18,19
 315 539 315 539 285 499 c 128,-1,20
 255 459 255 459 210 450 c 1,21,-1
 210 513 l 1,22,23
 229 521 229 521 241 541.5 c 128,-1,24
 253 562 253 562 253 595 c 0,25,26
 253 627 253 627 241 647.5 c 128,-1,27
 229 668 229 668 210 676 c 1,28,-1
 210 739 l 1,29,30
 255 730 255 730 285 690.5 c 128,-1,31
 315 651 315 651 315 595 c 256,18,19
479 143 m 256,32,33
 479 198 479 198 508.5 237 c 128,-1,34
 538 276 538 276 581 287 c 1,35,-1
 581 222 l 1,36,37
 564 213 564 213 553.5 193 c 128,-1,38
 543 173 543 173 543 143 c 256,39,40
 543 113 543 113 553 93 c 128,-1,41
 563 73 563 73 581 63 c 1,42,-1
 581 -1 l 1,43,44
 538 9 538 9 508.5 48.5 c 128,-1,45
 479 88 479 88 479 143 c 256,32,33
742 737 m 1,46,-1
 159 -1 l 1,47,-1
 57 -1 l 1,48,-1
 641 737 l 1,49,-1
 742 737 l 1,46,-1
622 289 m 1,50,51
 646 286 646 286 666 273.5 c 128,-1,52
 686 261 686 261 701.5 242 c 128,-1,53
 717 223 717 223 725.5 197.5 c 128,-1,54
 734 172 734 172 734 143 c 0,55,56
 734 113 734 113 725.5 88 c 128,-1,57
 717 63 717 63 701.5 44 c 128,-1,58
 686 25 686 25 665.5 12.5 c 128,-1,59
 645 0 645 0 622 -3 c 1,60,-1
 622 59 l 1,61,62
 644 64 644 64 658 86 c 128,-1,63
 672 108 672 108 672 143 c 0,64,65
 672 177 672 177 657.5 199 c 128,-1,66
 643 221 643 221 622 226 c 1,67,-1
 622 289 l 1,50,51
EndSplineSet
EndChar

StartChar: ampersand
Encoding: 38 38 8
Width: 705
GlyphClass: 2
Flags: W
LayerCount: 2
Fore
SplineSet
653 0 m 1,0,-1
 528 0 l 1,1,-1
 459 86 l 1,2,3
 433 52 433 52 395 28.5 c 128,-1,4
 357 5 357 5 306 -3 c 1,5,-1
 306 85 l 1,6,7
 345 96 345 96 367 118.5 c 128,-1,8
 389 141 389 141 404 159 c 1,9,10
 380 188 380 188 355 217 c 128,-1,11
 330 246 330 246 306 273 c 1,12,-1
 306 442 l 1,13,14
 350 464 350 464 372 498 c 128,-1,15
 394 532 394 532 394 566 c 0,16,17
 394 605 394 605 368.5 625.5 c 128,-1,18
 343 646 343 646 306 647 c 1,19,-1
 306 744 l 1,20,21
 341 744 341 744 373.5 733.5 c 128,-1,22
 406 723 406 723 431.5 701 c 128,-1,23
 457 679 457 679 472 646 c 128,-1,24
 487 613 487 613 487 568 c 1,25,26
 485 529 485 529 473 497.5 c 128,-1,27
 461 466 461 466 441.5 441 c 128,-1,28
 422 416 422 416 398.5 397.5 c 128,-1,29
 375 379 375 379 352 367 c 1,30,31
 371 340 371 340 401 308 c 128,-1,32
 431 276 431 276 458 245 c 1,33,34
 469 262 469 262 479 280.5 c 128,-1,35
 489 299 489 299 501 325 c 1,36,-1
 579 293 l 1,37,38
 568 261 568 261 552 230 c 128,-1,39
 536 199 536 199 518 168 c 1,40,-1
 653 0 l 1,0,-1
122 575 m 0,41,42
 122 606 122 606 132 633 c 128,-1,43
 142 660 142 660 161 682.5 c 128,-1,44
 180 705 180 705 206.5 720 c 128,-1,45
 233 735 233 735 265 741 c 1,46,-1
 265 639 l 1,47,48
 246 631 246 631 232.5 614 c 128,-1,49
 219 597 219 597 219 575 c 0,50,51
 219 540 219 540 233.5 514 c 128,-1,52
 248 488 248 488 265 469 c 1,53,-1
 265 318 l 1,54,55
 215 285 215 285 192.5 247 c 128,-1,56
 170 209 170 209 170 173 c 0,57,58
 170 162 170 162 174.5 146 c 128,-1,59
 179 130 179 130 190 115.5 c 128,-1,60
 201 101 201 101 218.5 90.5 c 128,-1,61
 236 80 236 80 262 80 c 2,62,-1
 265 80 l 1,63,-1
 265 -7 l 1,64,-1
 252 -7 l 2,65,66
 220 -7 220 -7 188.5 3 c 128,-1,67
 157 13 157 13 131 35 c 128,-1,68
 105 57 105 57 89 91.5 c 128,-1,69
 73 126 73 126 73 173 c 0,70,71
 73 213 73 213 85 247 c 128,-1,72
 97 281 97 281 117 308.5 c 128,-1,73
 137 336 137 336 162.5 358.5 c 128,-1,74
 188 381 188 381 214 397 c 1,75,76
 202 409 202 409 186 426.5 c 128,-1,77
 170 444 170 444 155.5 466 c 128,-1,78
 141 488 141 488 131.5 515.5 c 128,-1,79
 122 543 122 543 122 575 c 0,41,42
EndSplineSet
EndChar

StartChar: quotesingle
Encoding: 39 39 9
Width: 250
GlyphClass: 2
Flags: W
LayerCount: 2
Fore
SplineSet
160 564 m 1,0,-1
 91 564 l 1,1,-1
 75 737 l 1,2,-1
 176 737 l 1,3,-1
 160 564 l 1,0,-1
EndSplineSet
EndChar

StartChar: parenleft
Encoding: 40 40 10
Width: 294
GlyphClass: 2
Flags: W
LayerCount: 2
Fore
SplineSet
171 -61 m 1,0,1
 149 -33 149 -33 129 15 c 128,-1,2
 109 63 109 63 93.5 121.5 c 128,-1,3
 78 180 78 180 68 243 c 128,-1,4
 58 306 58 306 58 361 c 0,5,6
 58 413 58 413 67 472 c 128,-1,7
 76 531 76 531 89.5 586.5 c 128,-1,8
 103 642 103 642 121.5 687 c 128,-1,9
 140 732 140 732 159 757 c 1,10,-1
 222 757 l 1,11,12
 214 746 214 746 200.5 712.5 c 128,-1,13
 187 679 187 679 174.5 626 c 128,-1,14
 162 573 162 573 151.5 501.5 c 128,-1,15
 141 430 141 430 140 341 c 0,16,17
 139 263 139 263 151 195 c 128,-1,18
 163 127 163 127 180 74.5 c 128,-1,19
 197 22 197 22 213.5 -13.5 c 128,-1,20
 230 -49 230 -49 240 -61 c 1,21,-1
 171 -61 l 1,0,1
EndSplineSet
EndChar

StartChar: parenright
Encoding: 41 41 11
Width: 293
GlyphClass: 2
Flags: W
LayerCount: 2
Fore
SplineSet
54 -61 m 1,0,1
 63 -49 63 -49 80 -13.5 c 128,-1,2
 97 22 97 22 114 74.5 c 128,-1,3
 131 127 131 127 143 195 c 128,-1,4
 155 263 155 263 154 341 c 0,5,6
 153 430 153 430 142.5 501.5 c 128,-1,7
 132 573 132 573 119 626 c 128,-1,8
 106 679 106 679 92.5 712 c 128,-1,9
 79 745 79 745 72 757 c 1,10,-1
 135 757 l 1,11,12
 153 732 153 732 171.5 687 c 128,-1,13
 190 642 190 642 204 586.5 c 128,-1,14
 218 531 218 531 227 472.5 c 128,-1,15
 236 414 236 414 236 361 c 0,16,17
 236 306 236 306 226 243 c 128,-1,18
 216 180 216 180 200.5 121.5 c 128,-1,19
 185 63 185 63 164.5 14.5 c 128,-1,20
 144 -34 144 -34 123 -61 c 1,21,-1
 54 -61 l 1,0,1
EndSplineSet
EndChar

StartChar: asterisk
Encoding: 42 42 12
Width: 467
GlyphClass: 2
Flags: W
LayerCount: 2
Fore
SplineSet
392 481 m 1,0,-1
 270 527 l 1,1,-1
 315 404 l 1,2,-1
 242 385 l 1,3,-1
 220 513 l 1,4,-1
 137 413 l 1,5,-1
 84 466 l 1,6,-1
 184 550 l 1,7,-1
 55 571 l 1,8,-1
 76 645 l 1,9,-1
 198 599 l 1,10,-1
 153 721 l 1,11,-1
 226 741 l 1,12,-1
 248 613 l 1,13,-1
 331 714 l 1,14,-1
 384 659 l 1,15,-1
 284 577 l 1,16,-1
 413 555 l 1,17,-1
 392 481 l 1,0,-1
EndSplineSet
EndChar

StartChar: plus
Encoding: 43 43 13
Width: 648
GlyphClass: 2
Flags: W
LayerCount: 2
Fore
SplineSet
606 231 m 1,0,-1
 375 231 l 1,1,-1
 375 0 l 1,2,-1
 273 0 l 1,3,-1
 273 231 l 1,4,-1
 42 231 l 1,5,-1
 42 333 l 1,6,-1
 273 333 l 1,7,-1
 273 564 l 1,8,-1
 375 564 l 1,9,-1
 375 333 l 1,10,-1
 606 333 l 1,11,-1
 606 231 l 1,0,-1
EndSplineSet
EndChar

StartChar: comma
Encoding: 44 44 14
Width: 270
GlyphClass: 2
Flags: W
LayerCount: 2
Fore
SplineSet
136 139 m 256,0,1
 166 139 166 139 187 118 c 128,-1,2
 208 97 208 97 208 68 c 0,3,4
 208 63 208 63 207 44.5 c 128,-1,5
 206 26 206 26 197.5 -0.5 c 128,-1,6
 189 -27 189 -27 170 -58 c 128,-1,7
 151 -89 151 -89 114 -120 c 1,8,-1
 67 -120 l 1,9,10
 87 -101 87 -101 100 -80 c 128,-1,11
 113 -59 113 -59 121 -42 c 0,12,13
 130 -23 130 -23 136 -4 c 1,14,15
 106 -4 106 -4 85.5 17 c 128,-1,16
 65 38 65 38 65 68 c 256,17,18
 65 98 65 98 85.5 118.5 c 128,-1,19
 106 139 106 139 136 139 c 256,0,1
EndSplineSet
EndChar

StartChar: hyphen
Encoding: 45 45 15
Width: 489
GlyphClass: 2
Flags: W
LayerCount: 2
Fore
SplineSet
404 343 m 1,0,-1
 404 242 l 1,1,-1
 86 242 l 1,2,-1
 86 343 l 1,3,-1
 404 343 l 1,0,-1
EndSplineSet
EndChar

StartChar: period
Encoding: 46 46 16
Width: 207
GlyphClass: 2
Flags: W
LayerCount: 2
Fore
SplineSet
176 68 m 256,0,1
 176 38 176 38 155 17 c 128,-1,2
 134 -4 134 -4 104 -4 c 256,3,4
 74 -4 74 -4 53.5 17 c 128,-1,5
 33 38 33 38 33 68 c 256,6,7
 33 98 33 98 54 118.5 c 128,-1,8
 75 139 75 139 104 139 c 0,9,10
 134 139 134 139 155 118.5 c 128,-1,11
 176 98 176 98 176 68 c 256,0,1
EndSplineSet
EndChar

StartChar: slash
Encoding: 47 47 17
Width: 454
GlyphClass: 2
Flags: W
LayerCount: 2
Fore
SplineSet
115 -22 m 1,0,-1
 34 -22 l 1,1,-1
 341 799 l 1,2,-1
 422 799 l 1,3,-1
 115 -22 l 1,0,-1
EndSplineSet
EndChar

StartChar: zero
Encoding: 48 48 18
Width: 712
GlyphClass: 2
Flags: W
LayerCount: 2
Fore
SplineSet
359 650 m 0,0,1
 322 650 322 650 292 636 c 128,-1,2
 262 622 262 622 241 588.5 c 128,-1,3
 220 555 220 555 208.5 502 c 128,-1,4
 197 449 197 449 196 372 c 1,5,6
 197 311 197 311 204 264 c 128,-1,7
 211 217 211 217 225 184 c 1,8,-1
 170 67 l 1,9,10
 124 114 124 114 99 189.5 c 128,-1,11
 74 265 74 265 74 372 c 0,12,13
 74 465 74 465 93.5 535.5 c 128,-1,14
 113 606 113 606 149.5 653 c 128,-1,15
 186 700 186 700 238.5 724.5 c 128,-1,16
 291 749 291 749 356 749 c 0,17,18
 425 749 425 749 477 723 c 1,19,-1
 433 629 l 1,20,21
 400 650 400 650 359 650 c 0,0,1
539 680 m 1,22,23
 588 634 588 634 613.5 557 c 128,-1,24
 639 480 639 480 639 372 c 0,25,26
 639 279 639 279 619.5 208 c 128,-1,27
 600 137 600 137 563 90 c 128,-1,28
 526 43 526 43 474 19 c 128,-1,29
 422 -5 422 -5 356 -5 c 0,30,31
 285 -5 285 -5 230 23 c 1,32,-1
 275 118 l 1,33,34
 306 93 306 93 353 93 c 0,35,36
 390 93 390 93 420.5 107.5 c 128,-1,37
 451 122 451 122 472 155 c 128,-1,38
 493 188 493 188 504.5 241.5 c 128,-1,39
 516 295 516 295 517 372 c 1,40,41
 516 435 516 435 508 482 c 128,-1,42
 500 529 500 529 485 562 c 0,43,44
 484 563 484 563 484 564 c 2,45,-1
 539 680 l 1,22,23
EndSplineSet
EndChar

StartChar: one
Encoding: 49 49 19
Width: 422
GlyphClass: 2
Flags: W
LayerCount: 2
Fore
SplineSet
338 0 m 1,0,-1
 216 0 l 1,1,-1
 216 565 l 1,2,-1
 115 464 l 1,3,-1
 29 550 l 1,4,-1
 216 737 l 1,5,-1
 338 737 l 1,6,-1
 338 0 l 1,0,-1
EndSplineSet
EndChar

StartChar: two
Encoding: 50 50 20
Width: 614
GlyphClass: 2
Flags: W
LayerCount: 2
Fore
SplineSet
534 518 m 0,0,1
 534 479 534 479 517 437.5 c 128,-1,2
 500 396 500 396 472 355.5 c 128,-1,3
 444 315 444 315 410.5 277 c 128,-1,4
 377 239 377 239 343.5 205 c 128,-1,5
 310 171 310 171 280.5 143.5 c 128,-1,6
 251 116 251 116 232 97 c 1,7,-1
 545 97 l 1,8,-1
 545 0 l 1,9,-1
 87 0 l 1,10,-1
 87 112 l 1,11,12
 105 128 105 128 137 155.5 c 128,-1,13
 169 183 169 183 206 217 c 128,-1,14
 243 251 243 251 280 289.5 c 128,-1,15
 317 328 317 328 347.5 367.5 c 128,-1,16
 378 407 378 407 397.5 445 c 128,-1,17
 417 483 417 483 417 517 c 0,18,19
 417 552 417 552 404.5 575.5 c 128,-1,20
 392 599 392 599 373 614 c 128,-1,21
 354 629 354 629 331.5 635 c 128,-1,22
 309 641 309 641 289 641 c 0,23,24
 250 641 250 641 224.5 638.5 c 128,-1,25
 199 636 199 636 180 631.5 c 128,-1,26
 161 627 161 627 146 619 c 128,-1,27
 131 611 131 611 114 601 c 1,28,-1
 79 675 l 1,29,30
 97 691 97 691 123.5 704 c 128,-1,31
 150 717 150 717 178.5 725 c 128,-1,32
 207 733 207 733 235 737.5 c 128,-1,33
 263 742 263 742 287 742 c 0,34,35
 352 742 352 742 398.5 721 c 128,-1,36
 445 700 445 700 475 667.5 c 128,-1,37
 505 635 505 635 519.5 595 c 128,-1,38
 534 555 534 555 534 518 c 0,0,1
EndSplineSet
EndChar

StartChar: three
Encoding: 51 51 21
Width: 578
GlyphClass: 2
Flags: W
LayerCount: 2
Fore
SplineSet
367 388 m 1,0,1
 390 385 390 385 414.5 373 c 128,-1,2
 439 361 439 361 460 339 c 128,-1,3
 481 317 481 317 495 285.5 c 128,-1,4
 509 254 509 254 509 213 c 0,5,6
 509 163 509 163 494.5 126.5 c 128,-1,7
 480 90 480 90 458 66 c 128,-1,8
 436 42 436 42 408.5 27.5 c 128,-1,9
 381 13 381 13 355 6 c 128,-1,10
 329 -1 329 -1 307.5 -3 c 128,-1,11
 286 -5 286 -5 274 -5 c 0,12,13
 190 -5 190 -5 141.5 6.5 c 128,-1,14
 93 18 93 18 74 30 c 1,15,-1
 101 116 l 1,16,17
 110 111 110 111 118 105 c 128,-1,18
 126 99 126 99 141 93.5 c 128,-1,19
 156 88 156 88 183 84.5 c 128,-1,20
 210 81 210 81 257 81 c 0,21,22
 326 81 326 81 360 118.5 c 128,-1,23
 394 156 394 156 394 213 c 0,24,25
 394 267 394 267 363 304 c 128,-1,26
 332 341 332 341 272 341 c 2,27,-1
 170 341 l 1,28,-1
 171 341 l 1,29,-1
 170 422 l 1,30,-1
 238 422 l 2,31,32
 260 422 260 422 282.5 423 c 128,-1,33
 305 424 305 424 325 434 c 128,-1,34
 345 444 345 444 358 468 c 128,-1,35
 371 492 371 492 371 537 c 0,36,37
 371 555 371 555 368 575 c 128,-1,38
 365 595 365 595 351.5 612 c 128,-1,39
 338 629 338 629 312 639.5 c 128,-1,40
 286 650 286 650 240 650 c 256,41,42
 194 650 194 650 166.5 641.5 c 128,-1,43
 139 633 139 633 125 628 c 1,44,-1
 90 718 l 1,45,46
 114 725 114 725 149.5 733 c 128,-1,47
 185 741 185 741 252 741 c 0,48,49
 299 741 299 741 341 729.5 c 128,-1,50
 383 718 383 718 414.5 693 c 128,-1,51
 446 668 446 668 464.5 629 c 128,-1,52
 483 590 483 590 483 537 c 0,53,54
 483 506 483 506 472 480.5 c 128,-1,55
 461 455 461 455 444 436 c 128,-1,56
 427 417 427 417 406 404.5 c 128,-1,57
 385 392 385 392 367 388 c 1,0,1
EndSplineSet
EndChar

StartChar: four
Encoding: 52 52 22
Width: 621
GlyphClass: 2
Flags: W
LayerCount: 2
Fore
SplineSet
479 267 m 1,0,-1
 556 267 l 1,1,-1
 556 172 l 1,2,-1
 479 172 l 1,3,-1
 479 0 l 1,4,-1
 357 0 l 1,5,-1
 357 737 l 1,6,-1
 479 737 l 1,7,-1
 479 267 l 1,0,-1
38 172 m 1,8,-1
 38 267 l 1,9,-1
 316 677 l 1,10,-1
 316 534 l 1,11,-1
 145 267 l 1,12,-1
 316 267 l 1,13,-1
 316 172 l 1,14,-1
 38 172 l 1,8,-1
EndSplineSet
EndChar

StartChar: five
Encoding: 53 53 23
Width: 605
GlyphClass: 2
Flags: W
LayerCount: 2
Fore
SplineSet
305 458 m 0,0,1
 357 458 357 458 398.5 439.5 c 128,-1,2
 440 421 440 421 469 390 c 128,-1,3
 498 359 498 359 513 320 c 128,-1,4
 528 281 528 281 528 239 c 0,5,6
 528 157 528 157 501 108.5 c 128,-1,7
 474 60 474 60 434.5 34.5 c 128,-1,8
 395 9 395 9 352 2 c 128,-1,9
 309 -5 309 -5 278 -5 c 0,10,11
 244 -5 244 -5 213 0.5 c 128,-1,12
 182 6 182 6 156.5 14.5 c 128,-1,13
 131 23 131 23 112 31.5 c 128,-1,14
 93 40 93 40 83 45 c 1,15,-1
 83 145 l 1,16,17
 97 136 97 136 118.5 125.5 c 128,-1,18
 140 115 140 115 164 105.5 c 128,-1,19
 188 96 188 96 214.5 90 c 128,-1,20
 241 84 241 84 264 84 c 0,21,22
 338 84 338 84 380 122 c 128,-1,23
 422 160 422 160 422 239 c 0,24,25
 422 296 422 296 385.5 329 c 128,-1,26
 349 362 349 362 290 362 c 0,27,28
 271 362 271 362 252 359.5 c 128,-1,29
 233 357 233 357 216 352 c 1,30,-1
 228 451 l 1,31,32
 248 455 248 455 270.5 456.5 c 128,-1,33
 293 458 293 458 305 458 c 0,0,1
172 326 m 1,34,-1
 78 326 l 1,35,36
 78 334 78 334 80 356 c 128,-1,37
 82 378 82 378 85 408.5 c 128,-1,38
 88 439 88 439 92 475 c 128,-1,39
 96 511 96 511 100 548 c 0,40,41
 110 634 110 634 123 737 c 1,42,-1
 488 737 l 1,43,-1
 488 639 l 1,44,-1
 213 639 l 1,45,46
 203 565 203 565 197 524 c 128,-1,47
 191 483 191 483 188.5 463 c 128,-1,48
 186 443 186 443 185.5 438.5 c 128,-1,49
 185 434 185 434 185 433 c 2,50,-1
 177 366 l 1,51,-1
 172 326 l 1,34,-1
EndSplineSet
EndChar

StartChar: six
Encoding: 54 54 24
Width: 646
GlyphClass: 2
Flags: W
LayerCount: 2
Fore
SplineSet
351 649 m 0,0,1
 310 649 310 649 280 631 c 128,-1,2
 250 613 250 613 230.5 583 c 128,-1,3
 211 553 211 553 201 514 c 128,-1,4
 191 475 191 475 191 433 c 1,5,6
 192 434 192 434 195 434 c 128,-1,7
 198 434 198 434 199 435 c 0,8,9
 210 457 210 457 241 474.5 c 128,-1,10
 272 492 272 492 314 497 c 1,11,-1
 314 409 l 1,12,13
 286 406 286 406 263 393.5 c 128,-1,14
 240 381 240 381 223 360.5 c 128,-1,15
 206 340 206 340 196 312.5 c 128,-1,16
 186 285 186 285 186 253 c 0,17,18
 186 220 186 220 196 192 c 128,-1,19
 206 164 206 164 223 143 c 128,-1,20
 240 122 240 122 263.5 108.5 c 128,-1,21
 287 95 287 95 314 92 c 1,22,-1
 314 -6 l 1,23,24
 253 -3 253 -3 207.5 20 c 128,-1,25
 162 43 162 43 131.5 82.5 c 128,-1,26
 101 122 101 122 87 175 c 128,-1,27
 73 228 73 228 73 291 c 0,28,29
 73 423 73 423 97 510.5 c 128,-1,30
 121 598 121 598 159.5 649 c 128,-1,31
 198 700 198 700 245.5 721 c 128,-1,32
 293 742 293 742 340 742 c 0,33,34
 396 742 396 742 445.5 735 c 128,-1,35
 495 728 495 728 530 705 c 1,36,-1
 492 622 l 1,37,38
 464 640 464 640 430 644.5 c 128,-1,39
 396 649 396 649 351 649 c 0,0,1
355 499 m 1,40,41
 405 497 405 497 446 475.5 c 128,-1,42
 487 454 487 454 516 420.5 c 128,-1,43
 545 387 545 387 560 345.5 c 128,-1,44
 575 304 575 304 575 263 c 0,45,46
 575 192 575 192 554.5 142.5 c 128,-1,47
 534 93 534 93 501 62 c 128,-1,48
 468 31 468 31 429 15 c 128,-1,49
 390 -1 390 -1 355 -5 c 1,50,-1
 355 93 l 1,51,52
 405 103 405 103 437.5 146.5 c 128,-1,53
 470 190 470 190 470 253 c 0,54,55
 470 314 470 314 438 356 c 128,-1,56
 406 398 406 398 355 408 c 1,57,-1
 355 499 l 1,40,41
EndSplineSet
EndChar

StartChar: seven
Encoding: 55 55 25
Width: 569
GlyphClass: 2
Flags: W
LayerCount: 2
Fore
SplineSet
128 0 m 1,0,-1
 384 639 l 1,1,-1
 63 639 l 1,2,-1
 63 737 l 1,3,-1
 526 737 l 1,4,-1
 240 0 l 1,5,-1
 128 0 l 1,0,-1
EndSplineSet
EndChar

StartChar: eight
Encoding: 56 56 26
Width: 607
GlyphClass: 2
Flags: W
LayerCount: 2
Fore
SplineSet
95 551 m 0,0,1
 95 594 95 594 110 628 c 128,-1,2
 125 662 125 662 150 686 c 128,-1,3
 175 710 175 710 209.5 723.5 c 128,-1,4
 244 737 244 737 284 741 c 1,5,-1
 284 644 l 1,6,7
 245 638 245 638 221.5 614.5 c 128,-1,8
 198 591 198 591 198 549 c 0,9,10
 198 522 198 522 222.5 500 c 128,-1,11
 247 478 247 478 284 457 c 1,12,-1
 284 336 l 1,13,-1
 268 345 l 1,14,15
 255 334 255 334 239.5 320 c 128,-1,16
 224 306 224 306 211 288 c 128,-1,17
 198 270 198 270 188.5 247 c 128,-1,18
 179 224 179 224 179 197 c 0,19,20
 179 155 179 155 208.5 125 c 128,-1,21
 238 95 238 95 284 87 c 1,22,-1
 284 -8 l 1,23,24
 182 -2 182 -2 127 50 c 128,-1,25
 72 102 72 102 72 191 c 0,26,27
 72 265 72 265 106.5 315.5 c 128,-1,28
 141 366 141 366 197 391 c 1,29,30
 154 422 154 422 124.5 460.5 c 128,-1,31
 95 499 95 499 95 551 c 0,0,1
402 388 m 1,32,33
 429 371 429 371 453.5 351.5 c 128,-1,34
 478 332 478 332 496.5 308.5 c 128,-1,35
 515 285 515 285 526 257 c 128,-1,36
 537 229 537 229 537 196 c 0,37,38
 537 150 537 150 520 113 c 128,-1,39
 503 76 503 76 474 50 c 128,-1,40
 445 24 445 24 406.5 8.5 c 128,-1,41
 368 -7 368 -7 325 -9 c 1,42,-1
 325 86 l 1,43,44
 348 88 348 88 366.5 97 c 128,-1,45
 385 106 385 106 399 119.5 c 128,-1,46
 413 133 413 133 421 149 c 128,-1,47
 429 165 429 165 429 182 c 0,48,49
 429 222 429 222 398.5 252.5 c 128,-1,50
 368 283 368 283 325 310 c 1,51,-1
 325 434 l 1,52,53
 329 431 329 431 337 427 c 1,54,55
 363 449 363 449 385 479 c 128,-1,56
 407 509 407 509 407 551 c 0,57,58
 407 603 407 603 383 623 c 128,-1,59
 359 643 359 643 325 645 c 1,60,-1
 325 742 l 1,61,62
 375 740 375 740 410 724 c 128,-1,63
 445 708 445 708 467 681.5 c 128,-1,64
 489 655 489 655 499 622 c 128,-1,65
 509 589 509 589 509 553 c 0,66,67
 509 529 509 529 499.5 506.5 c 128,-1,68
 490 484 490 484 475 463 c 128,-1,69
 460 442 460 442 440.5 423 c 128,-1,70
 421 404 421 404 402 388 c 1,32,33
EndSplineSet
EndChar

StartChar: nine
Encoding: 57 57 27
Width: 645
GlyphClass: 2
Flags: W
LayerCount: 2
Fore
SplineSet
291 238 m 1,0,1
 240 239 240 239 199 261 c 128,-1,2
 158 283 158 283 129 316 c 128,-1,3
 100 349 100 349 85 390.5 c 128,-1,4
 70 432 70 432 70 473 c 0,5,6
 70 544 70 544 91.5 593.5 c 128,-1,7
 113 643 113 643 145 674.5 c 128,-1,8
 177 706 177 706 216 721.5 c 128,-1,9
 255 737 255 737 291 740 c 1,10,-1
 291 643 l 1,11,12
 240 633 240 633 207.5 589.5 c 128,-1,13
 175 546 175 546 175 483 c 0,14,15
 175 421 175 421 207.5 379 c 128,-1,16
 240 337 240 337 291 329 c 1,17,-1
 291 238 l 1,0,1
332 742 m 1,18,19
 393 739 393 739 438 716 c 128,-1,20
 483 693 483 693 513.5 653.5 c 128,-1,21
 544 614 544 614 558 561 c 128,-1,22
 572 508 572 508 572 445 c 0,23,24
 572 313 572 313 548 226 c 128,-1,25
 524 139 524 139 485.5 87.5 c 128,-1,26
 447 36 447 36 399.5 15.5 c 128,-1,27
 352 -5 352 -5 305 -5 c 0,28,29
 249 -5 249 -5 200 2.5 c 128,-1,30
 151 10 151 10 115 34 c 1,31,-1
 154 117 l 1,32,33
 182 99 182 99 215.5 94 c 128,-1,34
 249 89 249 89 294 89 c 0,35,36
 335 89 335 89 365 107 c 128,-1,37
 395 125 395 125 414.5 154.5 c 128,-1,38
 434 184 434 184 444 222.5 c 128,-1,39
 454 261 454 261 454 303 c 1,40,41
 453 302 453 302 450 302 c 128,-1,42
 447 302 447 302 446 301 c 0,43,44
 435 279 435 279 404.5 262 c 128,-1,45
 374 245 374 245 332 240 c 1,46,-1
 332 328 l 1,47,48
 360 331 360 331 383 343.5 c 128,-1,49
 406 356 406 356 422.5 376 c 128,-1,50
 439 396 439 396 449 423.5 c 128,-1,51
 459 451 459 451 459 483 c 0,52,53
 459 516 459 516 449 544 c 128,-1,54
 439 572 439 572 422.5 593 c 128,-1,55
 406 614 406 614 382.5 627.5 c 128,-1,56
 359 641 359 641 332 644 c 1,57,-1
 332 742 l 1,18,19
EndSplineSet
EndChar

StartChar: colon
Encoding: 58 58 28
Width: 294
GlyphClass: 2
Flags: W
LayerCount: 2
Fore
SplineSet
220 498 m 256,0,1
 220 468 220 468 199 447 c 128,-1,2
 178 426 178 426 148 426 c 256,3,4
 118 426 118 426 97.5 447 c 128,-1,5
 77 468 77 468 77 498 c 256,6,7
 77 528 77 528 98 548.5 c 128,-1,8
 119 569 119 569 148 569 c 0,9,10
 178 569 178 569 199 548.5 c 128,-1,11
 220 528 220 528 220 498 c 256,0,1
220 67 m 256,12,13
 220 37 220 37 199 16 c 128,-1,14
 178 -5 178 -5 148 -5 c 256,15,16
 118 -5 118 -5 97.5 16 c 128,-1,17
 77 37 77 37 77 67 c 256,18,19
 77 97 77 97 98 117.5 c 128,-1,20
 119 138 119 138 148 138 c 0,21,22
 178 138 178 138 199 117.5 c 128,-1,23
 220 97 220 97 220 67 c 256,12,13
EndSplineSet
EndChar

StartChar: semicolon
Encoding: 59 59 29
Width: 274
GlyphClass: 2
Flags: W
LayerCount: 2
Fore
SplineSet
188 118.5 m 128,-1,1
 209 98 209 98 209 68 c 0,2,3
 209 62 209 62 208 44 c 128,-1,4
 207 26 207 26 198.5 -0.5 c 128,-1,5
 190 -27 190 -27 171 -58 c 128,-1,6
 152 -89 152 -89 115 -120 c 1,7,-1
 68 -120 l 1,8,9
 88 -100 88 -100 101 -79.5 c 128,-1,10
 114 -59 114 -59 122 -42 c 0,11,12
 131 -22 131 -22 137 -4 c 1,13,14
 108 -4 108 -4 87 17 c 128,-1,15
 66 38 66 38 66 68 c 0,16,17
 66 97 66 97 86.5 118 c 128,-1,18
 107 139 107 139 137 139 c 256,19,0
 167 139 167 139 188 118.5 c 128,-1,1
209 498 m 256,20,21
 209 468 209 468 188 447 c 128,-1,22
 167 426 167 426 137 426 c 256,23,24
 107 426 107 426 86.5 447 c 128,-1,25
 66 468 66 468 66 498 c 256,26,27
 66 528 66 528 87 548.5 c 128,-1,28
 108 569 108 569 137 569 c 0,29,30
 167 569 167 569 188 548.5 c 128,-1,31
 209 528 209 528 209 498 c 256,20,21
EndSplineSet
EndChar

StartChar: less
Encoding: 60 60 30
Width: 645
GlyphClass: 2
Flags: W
LayerCount: 2
Fore
SplineSet
561 84 m 1,0,-1
 561 -6 l 1,1,-1
 29 254 l 1,2,-1
 29 322 l 1,3,-1
 561 579 l 1,4,-1
 561 489 l 1,5,-1
 123 288 l 1,6,-1
 561 84 l 1,0,-1
EndSplineSet
EndChar

StartChar: equal
Encoding: 61 61 31
Width: 638
GlyphClass: 2
Flags: W
LayerCount: 2
Fore
SplineSet
553 444 m 1,0,-1
 553 343 l 1,1,-1
 86 343 l 1,2,-1
 86 444 l 1,3,-1
 553 444 l 1,0,-1
553 242 m 1,4,-1
 553 140 l 1,5,-1
 86 140 l 1,6,-1
 86 242 l 1,7,-1
 553 242 l 1,4,-1
EndSplineSet
EndChar

StartChar: greater
Encoding: 62 62 32
Width: 647
GlyphClass: 2
Flags: W
LayerCount: 2
Fore
SplineSet
86 84 m 1,0,-1
 524 288 l 1,1,-1
 86 489 l 1,2,-1
 86 579 l 1,3,-1
 618 322 l 1,4,-1
 618 254 l 1,5,-1
 86 -6 l 1,6,-1
 86 84 l 1,0,-1
EndSplineSet
EndChar

StartChar: question
Encoding: 63 63 33
Width: 507
GlyphClass: 2
Flags: W
LayerCount: 2
Fore
SplineSet
241 203 m 1,0,-1
 150 203 l 1,1,2
 150 262 150 262 164 299.5 c 128,-1,3
 178 337 178 337 200 362 c 128,-1,4
 222 387 222 387 247.5 404 c 128,-1,5
 273 421 273 421 295 439.5 c 128,-1,6
 317 458 317 458 331.5 482.5 c 128,-1,7
 346 507 346 507 346 547 c 0,8,9
 346 563 346 563 338 580.5 c 128,-1,10
 330 598 330 598 316 612 c 128,-1,11
 302 626 302 626 283.5 635.5 c 128,-1,12
 265 645 265 645 246 647 c 0,13,14
 210 650 210 650 187 648 c 128,-1,15
 164 646 164 646 150 641 c 128,-1,16
 136 636 136 636 128.5 631 c 128,-1,17
 121 626 121 626 115 623 c 1,18,19
 114 624 114 624 108.5 633 c 128,-1,20
 103 642 103 642 96.5 655.5 c 128,-1,21
 90 669 90 669 82 684 c 128,-1,22
 74 699 74 699 68 713 c 1,23,24
 98 732 98 732 144 740.5 c 128,-1,25
 190 749 190 749 237 749 c 0,26,27
 281 749 281 749 321 735 c 128,-1,28
 361 721 361 721 392 694.5 c 128,-1,29
 423 668 423 668 441.5 630 c 128,-1,30
 460 592 460 592 460 543 c 0,31,32
 460 490 460 490 443.5 454.5 c 128,-1,33
 427 419 427 419 403 394.5 c 128,-1,34
 379 370 379 370 350.5 352 c 128,-1,35
 322 334 322 334 297.5 314 c 128,-1,36
 273 294 273 294 257 268 c 128,-1,37
 241 242 241 242 241 203 c 1,0,-1
267 68 m 256,38,39
 267 38 267 38 246 17 c 128,-1,40
 225 -4 225 -4 196 -4 c 0,41,42
 166 -4 166 -4 145 17 c 128,-1,43
 124 38 124 38 124 68 c 256,44,45
 124 98 124 98 145 118.5 c 128,-1,46
 166 139 166 139 196 139 c 256,47,48
 226 139 226 139 246.5 118.5 c 128,-1,49
 267 98 267 98 267 68 c 256,38,39
EndSplineSet
EndChar

StartChar: at
Encoding: 64 64 34
Width: 1040
GlyphClass: 2
Flags: W
LayerCount: 2
Fore
SplineSet
74 301 m 0,0,1
 74 412 74 412 103.5 499.5 c 128,-1,2
 133 587 133 587 187.5 649.5 c 128,-1,3
 242 712 242 712 317.5 748.5 c 128,-1,4
 393 785 393 785 485 796 c 1,5,-1
 485 697 l 1,6,7
 404 687 404 687 345 652.5 c 128,-1,8
 286 618 286 618 247.5 565.5 c 128,-1,9
 209 513 209 513 190 445.5 c 128,-1,10
 171 378 171 378 171 301 c 0,11,12
 171 231 171 231 190.5 171.5 c 128,-1,13
 210 112 210 112 236.5 65.5 c 128,-1,14
 263 19 263 19 291 -11 c 128,-1,15
 319 -41 319 -41 337 -53 c 1,16,-1
 281 -120 l 1,17,18
 250 -94 250 -94 213.5 -52 c 128,-1,19
 177 -10 177 -10 146 44.5 c 128,-1,20
 115 99 115 99 94.5 164 c 128,-1,21
 74 229 74 229 74 301 c 0,0,1
311 307 m 0,22,23
 311 365 311 365 327 406 c 128,-1,24
 343 447 343 447 367.5 473.5 c 128,-1,25
 392 500 392 500 423.5 511.5 c 128,-1,26
 455 523 455 523 485 525 c 1,27,-1
 485 449 l 1,28,29
 449 437 449 437 430 395 c 128,-1,30
 411 353 411 353 411 300 c 0,31,32
 411 248 411 248 431.5 208.5 c 128,-1,33
 452 169 452 169 485 157 c 1,34,-1
 485 78 l 1,35,-1
 483 78 l 2,36,37
 440 78 440 78 408 97 c 128,-1,38
 376 116 376 116 354.5 147.5 c 128,-1,39
 333 179 333 179 322 220.5 c 128,-1,40
 311 262 311 262 311 307 c 0,22,23
552 799 m 0,41,42
 658 799 658 799 739 760.5 c 128,-1,43
 820 722 820 722 874.5 658 c 128,-1,44
 929 594 929 594 956.5 511 c 128,-1,45
 984 428 984 428 984 338 c 0,46,47
 984 275 984 275 968.5 223.5 c 128,-1,48
 953 172 953 172 924.5 136 c 128,-1,49
 896 100 896 100 855 80 c 128,-1,50
 814 60 814 60 763 60 c 0,51,52
 746 60 746 60 724 65.5 c 128,-1,53
 702 71 702 71 682 80.5 c 128,-1,54
 662 90 662 90 644.5 103.5 c 128,-1,55
 627 117 627 117 620 134 c 1,56,-1
 610 134 l 1,57,58
 607 118 607 118 583.5 103.5 c 128,-1,59
 560 89 560 89 526 82 c 1,60,-1
 526 153 l 1,61,62
 569 160 569 160 592.5 202 c 128,-1,63
 616 244 616 244 616 301 c 0,64,65
 616 359 616 359 591.5 401 c 128,-1,66
 567 443 567 443 526 452 c 1,67,-1
 526 522 l 1,68,69
 554 517 554 517 576 506 c 128,-1,70
 598 495 598 495 610 477 c 1,71,-1
 621 521 l 1,72,-1
 706 521 l 1,73,-1
 707 230 l 2,74,75
 707 205 707 205 714 189.5 c 128,-1,76
 721 174 721 174 731 164.5 c 128,-1,77
 741 155 741 155 753.5 151 c 128,-1,78
 766 147 766 147 776 147 c 0,79,80
 832 147 832 147 859.5 193 c 128,-1,81
 887 239 887 239 887 338 c 0,82,83
 887 419 887 419 862.5 485.5 c 128,-1,84
 838 552 838 552 794 600 c 128,-1,85
 750 648 750 648 688.5 674.5 c 128,-1,86
 627 701 627 701 552 701 c 0,87,88
 546 701 546 701 539 701 c 128,-1,89
 532 701 532 701 526 700 c 1,90,-1
 526 798 l 1,91,92
 532 799 532 799 539 799 c 128,-1,93
 546 799 546 799 552 799 c 0,41,42
EndSplineSet
EndChar

StartChar: A
Encoding: 65 65 35
Width: 759
GlyphClass: 2
Flags: W
LayerCount: 2
Fore
SplineSet
696 0 m 1,0,-1
 572 0 l 1,1,-1
 381 552 l 1,2,-1
 188 0 l 1,3,-1
 63 0 l 1,4,-1
 321 736 l 1,5,-1
 440 736 l 1,6,-1
 696 0 l 1,0,-1
447 234 m 1,7,-1
 476 153 l 1,8,-1
 285 153 l 1,9,-1
 313 234 l 1,10,-1
 447 234 l 1,7,-1
EndSplineSet
EndChar

StartChar: B
Encoding: 66 66 36
Width: 671
GlyphClass: 2
Flags: W
LayerCount: 2
Fore
SplineSet
444 388 m 1,0,1
 467 385 467 385 493 373 c 128,-1,2
 519 361 519 361 541.5 339 c 128,-1,3
 564 317 564 317 579 285.5 c 128,-1,4
 594 254 594 254 594 213 c 0,5,6
 594 163 594 163 579 127 c 128,-1,7
 564 91 564 91 541.5 67.5 c 128,-1,8
 519 44 519 44 492.5 30.5 c 128,-1,9
 466 17 466 17 441.5 10 c 128,-1,10
 417 3 417 3 398 1.5 c 128,-1,11
 379 0 379 0 373 0 c 2,12,-1
 257 0 l 1,13,-1
 257 88 l 1,14,-1
 366 88 l 2,15,16
 419 88 419 88 449 122 c 128,-1,17
 479 156 479 156 479 213 c 0,18,19
 479 267 479 267 448 304 c 128,-1,20
 417 341 417 341 357 341 c 2,21,-1
 257 341 l 1,22,-1
 257 422 l 1,23,-1
 305 422 l 2,24,25
 327 422 327 422 350 423 c 128,-1,26
 373 424 373 424 393 434 c 128,-1,27
 413 444 413 444 425.5 468 c 128,-1,28
 438 492 438 492 438 537 c 0,29,30
 438 555 438 555 433 574.5 c 128,-1,31
 428 594 428 594 413 610 c 128,-1,32
 398 626 398 626 370 636 c 128,-1,33
 342 646 342 646 296 646 c 2,34,-1
 257 646 l 1,35,-1
 257 737 l 1,36,-1
 308 737 l 2,37,38
 355 737 355 737 399 726 c 128,-1,39
 443 715 443 715 477 691 c 128,-1,40
 511 667 511 667 531 628.5 c 128,-1,41
 551 590 551 590 551 537 c 0,42,43
 551 506 551 506 541 480.5 c 128,-1,44
 531 455 531 455 516 436 c 128,-1,45
 501 417 501 417 481.5 404.5 c 128,-1,46
 462 392 462 392 444 388 c 1,0,1
96 737 m 1,47,-1
 216 737 l 1,48,-1
 216 0 l 1,49,-1
 96 0 l 1,50,-1
 96 737 l 1,47,-1
EndSplineSet
EndChar

StartChar: C
Encoding: 67 67 37
Width: 671
GlyphClass: 2
Flags: W
LayerCount: 2
Fore
SplineSet
508 595 m 1,0,1
 485 621 485 621 459 634 c 128,-1,2
 433 647 433 647 403 649 c 1,3,-1
 403 748 l 1,4,5
 515 743 515 743 591 669 c 1,6,-1
 508 595 l 1,0,1
403 94 m 1,7,8
 433 97 433 97 459.5 110 c 128,-1,9
 486 123 486 123 508 148 c 1,10,-1
 591 75 l 1,11,12
 553 38 553 38 506 18 c 128,-1,13
 459 -2 459 -2 403 -5 c 1,14,-1
 403 94 l 1,7,8
79 372 m 256,15,16
 79 461 79 461 100.5 529 c 128,-1,17
 122 597 122 597 160 644 c 128,-1,18
 198 691 198 691 249.5 717 c 128,-1,19
 301 743 301 743 362 748 c 1,20,-1
 362 648 l 1,21,22
 329 643 329 643 300 625.5 c 128,-1,23
 271 608 271 608 249 575 c 128,-1,24
 227 542 227 542 214.5 491.5 c 128,-1,25
 202 441 202 441 201 372 c 1,26,27
 202 302 202 302 214.5 252 c 128,-1,28
 227 202 227 202 249 168 c 128,-1,29
 271 134 271 134 300.5 116 c 128,-1,30
 330 98 330 98 362 94 c 1,31,-1
 362 -4 l 1,32,33
 301 0 301 0 249.5 26 c 128,-1,34
 198 52 198 52 160 99 c 128,-1,35
 122 146 122 146 100.5 214.5 c 128,-1,36
 79 283 79 283 79 372 c 256,15,16
EndSplineSet
EndChar

StartChar: D
Encoding: 68 68 38
Width: 770
GlyphClass: 2
Flags: W
LayerCount: 2
Fore
SplineSet
96 737 m 1,0,-1
 216 737 l 1,1,-1
 216 0 l 1,2,-1
 96 0 l 1,3,-1
 96 737 l 1,0,-1
318 737 m 2,4,5
 411 737 411 737 481.5 707.5 c 128,-1,6
 552 678 552 678 598.5 629 c 128,-1,7
 645 580 645 580 668 517.5 c 128,-1,8
 691 455 691 455 691 389 c 0,9,10
 691 298 691 298 671.5 233.5 c 128,-1,11
 652 169 652 169 622 125.5 c 128,-1,12
 592 82 592 82 554.5 57 c 128,-1,13
 517 32 517 32 482 19.5 c 128,-1,14
 447 7 447 7 418 3.5 c 128,-1,15
 389 0 389 0 375 0 c 2,16,-1
 257 0 l 1,17,-1
 257 88 l 1,18,-1
 335 88 l 2,19,20
 457 88 457 88 511 166 c 128,-1,21
 565 244 565 244 565 392 c 0,22,23
 565 438 565 438 554 483 c 128,-1,24
 543 528 543 528 511.5 564.5 c 128,-1,25
 480 601 480 601 426 623.5 c 128,-1,26
 372 646 372 646 286 646 c 2,27,-1
 257 646 l 1,28,-1
 257 737 l 1,29,-1
 318 737 l 2,4,5
EndSplineSet
EndChar

StartChar: E
Encoding: 69 69 39
Width: 628
GlyphClass: 2
Flags: W
LayerCount: 2
Fore
SplineSet
95 737 m 1,0,-1
 217 737 l 1,1,-1
 217 0 l 1,2,-1
 95 0 l 1,3,-1
 95 737 l 1,0,-1
525 332 m 1,4,-1
 258 332 l 1,5,-1
 258 414 l 1,6,-1
 525 414 l 1,7,-1
 525 332 l 1,4,-1
258 91 m 1,8,-1
 556 91 l 1,9,-1
 556 0 l 1,10,-1
 258 0 l 1,11,-1
 258 91 l 1,8,-1
556 737 m 1,12,-1
 556 646 l 1,13,-1
 258 646 l 1,14,-1
 258 737 l 1,15,-1
 556 737 l 1,12,-1
EndSplineSet
EndChar

StartChar: F
Encoding: 70 70 40
Width: 591
GlyphClass: 2
Flags: W
LayerCount: 2
Fore
SplineSet
95 737 m 1,0,-1
 217 737 l 1,1,-1
 217 0 l 1,2,-1
 95 0 l 1,3,-1
 95 737 l 1,0,-1
525 332 m 1,4,-1
 258 332 l 1,5,-1
 258 414 l 1,6,-1
 525 414 l 1,7,-1
 525 332 l 1,4,-1
556 737 m 1,8,-1
 556 646 l 1,9,-1
 258 646 l 1,10,-1
 258 737 l 1,11,-1
 556 737 l 1,8,-1
EndSplineSet
EndChar

StartChar: G
Encoding: 71 71 41
Width: 710
GlyphClass: 2
Flags: W
LayerCount: 2
Fore
SplineSet
508 595 m 1,0,1
 484 624 484 624 453 637 c 128,-1,2
 422 650 422 650 389 650 c 2,3,-1
 385 650 l 1,4,-1
 385 749 l 1,5,-1
 386 749 l 2,6,7
 446 749 446 749 498 729 c 128,-1,8
 550 709 550 709 591 669 c 1,9,-1
 508 595 l 1,0,1
79 372 m 256,10,11
 79 458 79 458 99 524.5 c 128,-1,12
 119 591 119 591 154 637.5 c 128,-1,13
 189 684 189 684 238 711 c 128,-1,14
 287 738 287 738 344 745 c 1,15,-1
 344 645 l 1,16,17
 314 637 314 637 288.5 618 c 128,-1,18
 263 599 263 599 243.5 565.5 c 128,-1,19
 224 532 224 532 213 484.5 c 128,-1,20
 202 437 202 437 201 372 c 1,21,22
 202 307 202 307 213 258 c 128,-1,23
 224 209 224 209 243.5 173.5 c 128,-1,24
 263 138 263 138 288.5 117 c 128,-1,25
 314 96 314 96 344 88 c 1,26,-1
 344 -3 l 1,27,28
 287 4 287 4 238 31.5 c 128,-1,29
 189 59 189 59 154 106 c 128,-1,30
 119 153 119 153 99 219.5 c 128,-1,31
 79 286 79 286 79 372 c 256,10,11
629 380 m 1,32,-1
 629 95 l 1,33,34
 606 66 606 66 577.5 47.5 c 128,-1,35
 549 29 549 29 517.5 17 c 128,-1,36
 486 5 486 5 452.5 0 c 128,-1,37
 419 -5 419 -5 386 -5 c 2,38,-1
 385 -5 l 1,39,-1
 385 83 l 1,40,41
 397 83 397 83 414.5 84.5 c 128,-1,42
 432 86 432 86 450.5 89.5 c 128,-1,43
 469 93 469 93 485.5 99 c 128,-1,44
 502 105 502 105 510 116 c 1,45,-1
 510 298 l 1,46,-1
 385 298 l 1,47,-1
 385 380 l 1,48,-1
 629 380 l 1,32,-1
EndSplineSet
EndChar

StartChar: H
Encoding: 72 72 42
Width: 749
GlyphClass: 2
Flags: W
LayerCount: 2
Fore
SplineSet
655 737 m 1,0,-1
 655 0 l 1,1,-1
 535 0 l 1,2,-1
 535 332 l 1,3,-1
 257 332 l 1,4,-1
 257 414 l 1,5,-1
 535 414 l 1,6,-1
 535 737 l 1,7,-1
 655 737 l 1,0,-1
94 737 m 1,8,-1
 216 737 l 1,9,-1
 216 0 l 1,10,-1
 94 0 l 1,11,-1
 94 737 l 1,8,-1
EndSplineSet
EndChar

StartChar: I
Encoding: 73 73 43
Width: 308
GlyphClass: 2
Flags: W
LayerCount: 2
Fore
SplineSet
216 0 m 1,0,-1
 94 0 l 1,1,-1
 94 737 l 1,2,-1
 216 737 l 1,3,-1
 216 0 l 1,0,-1
EndSplineSet
EndChar

StartChar: J
Encoding: 74 74 44
Width: 565
GlyphClass: 2
Flags: W
LayerCount: 2
Fore
SplineSet
477 752 m 1,0,-1
 477 178 l 2,1,2
 477 126 477 126 458 90.5 c 128,-1,3
 439 55 439 55 407 33.5 c 128,-1,4
 375 12 375 12 333.5 3.5 c 128,-1,5
 292 -5 292 -5 248 -5 c 0,6,7
 226 -5 226 -5 196.5 -0.5 c 128,-1,8
 167 4 167 4 135.5 13.5 c 128,-1,9
 104 23 104 23 75 35 c 128,-1,10
 46 47 46 47 26 62 c 1,11,-1
 77 143 l 1,12,13
 87 136 87 136 105.5 128.5 c 128,-1,14
 124 121 124 121 146 114.5 c 128,-1,15
 168 108 168 108 192 103 c 128,-1,16
 216 98 216 98 237 98 c 0,17,18
 290 98 290 98 321.5 118.5 c 128,-1,19
 353 139 353 139 355 188 c 1,20,-1
 355 752 l 1,21,-1
 477 752 l 1,0,-1
EndSplineSet
EndChar

StartChar: K
Encoding: 75 75 45
Width: 668
GlyphClass: 2
Flags: W
LayerCount: 2
Fore
SplineSet
93 0 m 1,0,-1
 93 737 l 1,1,-1
 215 737 l 1,2,-1
 215 0 l 1,3,-1
 93 0 l 1,0,-1
336 358 m 1,4,-1
 592 0 l 1,5,-1
 453 0 l 1,6,-1
 256 290 l 1,7,-1
 256 436 l 1,8,-1
 435 737 l 1,9,-1
 572 737 l 1,10,-1
 336 358 l 1,4,-1
EndSplineSet
EndChar

StartChar: L
Encoding: 76 76 46
Width: 584
GlyphClass: 2
Flags: W
LayerCount: 2
Fore
SplineSet
215 737 m 1,0,-1
 215 91 l 1,1,-1
 554 91 l 1,2,-1
 554 0 l 1,3,-1
 93 0 l 1,4,-1
 93 737 l 1,5,-1
 215 737 l 1,0,-1
EndSplineSet
EndChar

StartChar: M
Encoding: 77 77 47
Width: 865
GlyphClass: 2
Flags: W
LayerCount: 2
Fore
SplineSet
92 737 m 1,0,-1
 214 737 l 1,1,-1
 412 282 l 1,2,-1
 412 97 l 1,3,-1
 380 97 l 1,4,-1
 214 507 l 1,5,-1
 214 0 l 1,6,-1
 92 0 l 1,7,-1
 92 737 l 1,0,-1
651 737 m 1,8,-1
 773 737 l 1,9,-1
 773 0 l 1,10,-1
 651 0 l 1,11,-1
 651 507 l 1,12,-1
 486 97 l 1,13,-1
 453 97 l 1,14,-1
 453 280 l 1,15,-1
 651 737 l 1,8,-1
EndSplineSet
EndChar

StartChar: N
Encoding: 78 78 48
Width: 716
GlyphClass: 2
Flags: W
LayerCount: 2
Fore
SplineSet
503 737 m 1,0,-1
 625 737 l 1,1,-1
 625 0 l 1,2,-1
 503 0 l 1,3,-1
 255 436 l 1,4,-1
 255 666 l 1,5,-1
 503 229 l 1,6,-1
 503 737 l 1,0,-1
92 0 m 1,7,-1
 92 737 l 1,8,-1
 214 737 l 1,9,-1
 214 0 l 1,10,-1
 92 0 l 1,7,-1
EndSplineSet
EndChar

StartChar: O
Encoding: 79 79 49
Width: 768
GlyphClass: 2
Flags: W
LayerCount: 2
Fore
SplineSet
77 372 m 256,0,1
 77 461 77 461 98.5 529.5 c 128,-1,2
 120 598 120 598 158.5 645.5 c 128,-1,3
 197 693 197 693 249.5 718.5 c 128,-1,4
 302 744 302 744 364 748 c 1,5,-1
 364 648 l 1,6,7
 330 644 330 644 300 627 c 128,-1,8
 270 610 270 610 248 577 c 128,-1,9
 226 544 226 544 213 493 c 128,-1,10
 200 442 200 442 199 372 c 1,11,12
 200 301 200 301 213 250.5 c 128,-1,13
 226 200 226 200 248.5 166 c 128,-1,14
 271 132 271 132 301 114.5 c 128,-1,15
 331 97 331 97 364 94 c 1,16,-1
 364 -5 l 1,17,18
 303 -1 303 -1 250 24.5 c 128,-1,19
 197 50 197 50 158.5 97.5 c 128,-1,20
 120 145 120 145 98.5 214 c 128,-1,21
 77 283 77 283 77 372 c 256,0,1
404 748 m 1,22,23
 465 745 465 745 517.5 719 c 128,-1,24
 570 693 570 693 608.5 645.5 c 128,-1,25
 647 598 647 598 669 529.5 c 128,-1,26
 691 461 691 461 691 372 c 256,27,28
 691 283 691 283 669 214 c 128,-1,29
 647 145 647 145 608.5 97.5 c 128,-1,30
 570 50 570 50 518 24.5 c 128,-1,31
 466 -1 466 -1 404 -5 c 1,32,-1
 404 94 l 1,33,34
 438 98 438 98 468 115.5 c 128,-1,35
 498 133 498 133 520 166.5 c 128,-1,36
 542 200 542 200 555 250.5 c 128,-1,37
 568 301 568 301 569 372 c 1,38,39
 568 443 568 443 555 493.5 c 128,-1,40
 542 544 542 544 519.5 577.5 c 128,-1,41
 497 611 497 611 467 628.5 c 128,-1,42
 437 646 437 646 404 649 c 1,43,-1
 404 748 l 1,22,23
EndSplineSet
EndChar

StartChar: P
Encoding: 80 80 50
Width: 605
GlyphClass: 2
Flags: W
LayerCount: 2
Fore
SplineSet
91 737 m 1,0,-1
 211 737 l 1,1,-1
 211 0 l 1,2,-1
 91 0 l 1,3,-1
 91 737 l 1,0,-1
303 737 m 2,4,5
 350 737 350 737 396 722 c 128,-1,6
 442 707 442 707 478.5 677 c 128,-1,7
 515 647 515 647 537.5 604.5 c 128,-1,8
 560 562 560 562 560 509 c 0,9,10
 560 453 560 453 541 407.5 c 128,-1,11
 522 362 522 362 488 331 c 128,-1,12
 454 300 454 300 406 283 c 128,-1,13
 358 266 358 266 300 266 c 2,14,-1
 252 266 l 1,15,-1
 252 354 l 1,16,-1
 321 354 l 2,17,18
 343 354 343 354 364.5 361.5 c 128,-1,19
 386 369 386 369 404 386 c 128,-1,20
 422 403 422 403 433 433.5 c 128,-1,21
 444 464 444 464 444 509 c 0,22,23
 444 527 444 527 439 550.5 c 128,-1,24
 434 574 434 574 418.5 595.5 c 128,-1,25
 403 617 403 617 375 631.5 c 128,-1,26
 347 646 347 646 301 646 c 2,27,-1
 252 646 l 1,28,-1
 252 737 l 1,29,-1
 303 737 l 2,4,5
EndSplineSet
EndChar

StartChar: Q
Encoding: 81 81 51
Width: 749
GlyphClass: 2
Flags: W
LayerCount: 2
Fore
SplineSet
63 372 m 0,0,1
 63 461 63 461 84.5 529.5 c 128,-1,2
 106 598 106 598 144.5 645.5 c 128,-1,3
 183 693 183 693 236 718.5 c 128,-1,4
 289 744 289 744 350 748 c 1,5,-1
 350 648 l 1,6,7
 316 644 316 644 286.5 627 c 128,-1,8
 257 610 257 610 235 577 c 128,-1,9
 213 544 213 544 199.5 493 c 128,-1,10
 186 442 186 442 185 372 c 1,11,12
 186 301 186 301 199.5 250.5 c 128,-1,13
 213 200 213 200 235.5 166 c 128,-1,14
 258 132 258 132 287.5 114.5 c 128,-1,15
 317 97 317 97 350 94 c 1,16,-1
 350 -3 l 1,17,-1
 332 -3 l 1,18,19
 274 4 274 4 224.5 31 c 128,-1,20
 175 58 175 58 139 105 c 128,-1,21
 103 152 103 152 83 219 c 128,-1,22
 63 286 63 286 63 372 c 0,0,1
678 372 m 0,23,24
 678 296 678 296 660 234 c 128,-1,25
 642 172 642 172 611 125 c 128,-1,26
 580 78 580 78 539 48 c 128,-1,27
 498 18 498 18 452 9 c 1,28,-1
 590 -169 l 1,29,-1
 458 -169 l 1,30,-1
 391 -54 l 1,31,-1
 391 94 l 1,32,33
 425 98 425 98 454.5 115.5 c 128,-1,34
 484 133 484 133 506 166.5 c 128,-1,35
 528 200 528 200 541.5 250.5 c 128,-1,36
 555 301 555 301 556 372 c 1,37,38
 555 443 555 443 541.5 493.5 c 128,-1,39
 528 544 528 544 505.5 577.5 c 128,-1,40
 483 611 483 611 453.5 628.5 c 128,-1,41
 424 646 424 646 391 649 c 1,42,-1
 391 748 l 1,43,44
 452 745 452 745 504.5 719 c 128,-1,45
 557 693 557 693 595.5 645.5 c 128,-1,46
 634 598 634 598 656 529.5 c 128,-1,47
 678 461 678 461 678 372 c 0,23,24
EndSplineSet
EndChar

StartChar: R
Encoding: 82 82 52
Width: 660
GlyphClass: 2
Flags: W
LayerCount: 2
Fore
SplineSet
90 737 m 1,0,-1
 210 737 l 1,1,-1
 210 0 l 1,2,-1
 90 0 l 1,3,-1
 90 737 l 1,0,-1
590 0 m 1,4,-1
 463 0 l 1,5,-1
 324 267 l 1,6,7
 321 267 321 267 317.5 266.5 c 128,-1,8
 314 266 314 266 307 266 c 128,-1,9
 300 266 300 266 286.5 266 c 128,-1,10
 273 266 273 266 251 266 c 1,11,-1
 251 354 l 1,12,-1
 319 354 l 2,13,14
 341 354 341 354 363 361.5 c 128,-1,15
 385 369 385 369 403 386 c 128,-1,16
 421 403 421 403 432 433.5 c 128,-1,17
 443 464 443 464 443 509 c 0,18,19
 443 527 443 527 438 550.5 c 128,-1,20
 433 574 433 574 417.5 595.5 c 128,-1,21
 402 617 402 617 374 631.5 c 128,-1,22
 346 646 346 646 300 646 c 2,23,-1
 251 646 l 1,24,-1
 251 737 l 1,25,-1
 302 737 l 2,26,27
 349 737 349 737 395 722 c 128,-1,28
 441 707 441 707 477.5 677 c 128,-1,29
 514 647 514 647 536.5 604.5 c 128,-1,30
 559 562 559 562 559 509 c 0,31,32
 559 429 559 429 522 373 c 128,-1,33
 485 317 485 317 422 290 c 1,34,-1
 590 0 l 1,4,-1
EndSplineSet
EndChar

StartChar: S
Encoding: 83 83 53
Width: 542
GlyphClass: 2
Flags: W
LayerCount: 2
Fore
SplineSet
431 623 m 1,0,1
 426 625 426 625 419 630 c 128,-1,2
 412 635 412 635 399 639.5 c 128,-1,3
 386 644 386 644 366 647 c 128,-1,4
 346 650 346 650 315 648 c 1,5,-1
 315 749 l 1,6,7
 359 748 359 748 404.5 739.5 c 128,-1,8
 450 731 450 731 478 713 c 1,9,10
 472 700 472 700 464 684.5 c 128,-1,11
 456 669 456 669 449 655.5 c 128,-1,12
 442 642 442 642 437 633 c 128,-1,13
 432 624 432 624 431 623 c 1,0,1
86 543 m 0,14,15
 86 587 86 587 101 622 c 128,-1,16
 116 657 116 657 141.5 683.5 c 128,-1,17
 167 710 167 710 201.5 725.5 c 128,-1,18
 236 741 236 741 274 746 c 1,19,-1
 274 641 l 1,20,21
 242 630 242 630 221 602.5 c 128,-1,22
 200 575 200 575 200 547 c 0,23,24
 200 508 200 508 221 484 c 128,-1,25
 242 460 242 460 274 442 c 1,26,-1
 274 328 l 1,27,28
 241 344 241 344 208 362.5 c 128,-1,29
 175 381 175 381 148 406 c 128,-1,30
 121 431 121 431 103.5 464 c 128,-1,31
 86 497 86 497 86 543 c 0,14,15
102 135 m 1,32,33
 116 127 116 127 137.5 119.5 c 128,-1,34
 159 112 159 112 182 105.5 c 128,-1,35
 205 99 205 99 228 95 c 128,-1,36
 251 91 251 91 271 91 c 2,37,-1
 274 91 l 1,38,-1
 274 -4 l 1,39,-1
 272 -4 l 2,40,41
 248 -4 248 -4 222.5 -1.5 c 128,-1,42
 197 1 197 1 171 7 c 128,-1,43
 145 13 145 13 121.5 23.5 c 128,-1,44
 98 34 98 34 81 49 c 1,45,-1
 102 135 l 1,32,33
315 422 m 1,46,47
 348 407 348 407 382.5 390 c 128,-1,48
 417 373 417 373 445 348.5 c 128,-1,49
 473 324 473 324 491 289 c 128,-1,50
 509 254 509 254 509 202 c 0,51,52
 509 166 509 166 495.5 132 c 128,-1,53
 482 98 482 98 457.5 70.5 c 128,-1,54
 433 43 433 43 397 24 c 128,-1,55
 361 5 361 5 315 -1 c 1,56,-1
 315 95 l 1,57,58
 397 115 397 115 397 204 c 0,59,60
 397 239 397 239 374 262 c 128,-1,61
 351 285 351 285 315 305 c 1,62,-1
 315 422 l 1,46,47
EndSplineSet
EndChar

StartChar: T
Encoding: 84 84 54
Width: 663
GlyphClass: 2
Flags: W
LayerCount: 2
Fore
SplineSet
612 737 m 1,0,-1
 612 655 l 1,1,-1
 392 655 l 1,2,-1
 392 0 l 1,3,-1
 271 0 l 1,4,-1
 271 655 l 1,5,-1
 51 655 l 1,6,-1
 51 737 l 1,7,-1
 612 737 l 1,0,-1
EndSplineSet
EndChar

StartChar: U
Encoding: 85 85 55
Width: 737
GlyphClass: 2
Flags: W
LayerCount: 2
Fore
SplineSet
204 384 m 2,0,1
 204 307 204 307 214 253.5 c 128,-1,2
 224 200 224 200 243 165.5 c 128,-1,3
 262 131 262 131 288.5 114 c 128,-1,4
 315 97 315 97 348 94 c 1,5,-1
 348 -5 l 1,6,7
 287 -1 287 -1 237.5 24.5 c 128,-1,8
 188 50 188 50 154 97.5 c 128,-1,9
 120 145 120 145 101 214 c 128,-1,10
 82 283 82 283 82 372 c 2,11,-1
 82 737 l 1,12,-1
 204 737 l 1,13,-1
 204 384 l 2,0,1
655 737 m 1,14,-1
 655 372 l 2,15,16
 655 283 655 283 636 214 c 128,-1,17
 617 145 617 145 582.5 97.5 c 128,-1,18
 548 50 548 50 499 24.5 c 128,-1,19
 450 -1 450 -1 389 -5 c 1,20,-1
 389 94 l 1,21,22
 422 98 422 98 448.5 114.5 c 128,-1,23
 475 131 475 131 494 165 c 128,-1,24
 513 199 513 199 523.5 252.5 c 128,-1,25
 534 306 534 306 534 384 c 2,26,-1
 534 737 l 1,27,-1
 655 737 l 1,14,-1
EndSplineSet
EndChar

StartChar: V
Encoding: 86 86 56
Width: 743
GlyphClass: 2
Flags: W
LayerCount: 2
Fore
SplineSet
60 737 m 1,0,-1
 197 737 l 1,1,-1
 352 159 l 1,2,-1
 352 -4 l 1,3,-1
 289 -4 l 1,4,-1
 60 737 l 1,0,-1
549 737 m 1,5,-1
 685 737 l 1,6,-1
 445 -4 l 1,7,-1
 393 -4 l 1,8,-1
 393 191 l 1,9,-1
 549 737 l 1,5,-1
EndSplineSet
EndChar

StartChar: W
Encoding: 87 87 57
Width: 1093
GlyphClass: 2
Flags: W
LayerCount: 2
Fore
SplineSet
339 101 m 1,0,-1
 479 737 l 1,1,-1
 526 737 l 1,2,-1
 526 470 l 1,3,-1
 417 -4 l 1,4,-1
 260 -4 l 1,5,-1
 73 737 l 1,6,-1
 209 737 l 1,7,-1
 339 101 l 1,0,-1
886 737 m 1,8,-1
 1022 737 l 1,9,-1
 823 -4 l 1,10,-1
 667 -4 l 1,11,-1
 567 451 l 1,12,-1
 567 737 l 1,13,-1
 615 737 l 1,14,-1
 745 101 l 1,15,-1
 886 737 l 1,8,-1
EndSplineSet
EndChar

StartChar: X
Encoding: 88 88 58
Width: 702
GlyphClass: 2
Flags: W
LayerCount: 2
Fore
SplineSet
74 737 m 1,0,-1
 211 737 l 1,1,-1
 331 461 l 1,2,-1
 331 232 l 1,3,-1
 225 0 l 1,4,-1
 86 0 l 1,5,-1
 273 358 l 1,6,-1
 74 737 l 1,0,-1
629 737 m 1,7,-1
 430 358 l 1,8,-1
 617 0 l 1,9,-1
 478 0 l 1,10,-1
 372 253 l 1,11,-1
 372 481 l 1,12,-1
 492 737 l 1,13,-1
 629 737 l 1,7,-1
EndSplineSet
EndChar

StartChar: Y
Encoding: 89 89 59
Width: 655
GlyphClass: 2
Flags: W
LayerCount: 2
Fore
SplineSet
466 737 m 1,0,-1
 603 737 l 1,1,-1
 384 300 l 1,2,-1
 384 0 l 1,3,-1
 262 0 l 1,4,-1
 262 246 l 1,5,-1
 466 737 l 1,0,-1
191 737 m 1,6,-1
 302 450 l 1,7,-1
 248 319 l 1,8,-1
 54 737 l 1,9,-1
 191 737 l 1,6,-1
EndSplineSet
EndChar

StartChar: Z
Encoding: 90 90 60
Width: 645
GlyphClass: 2
Flags: W
LayerCount: 2
Fore
SplineSet
568 737 m 1,0,-1
 568 640 l 1,1,-1
 217 113 l 1,2,-1
 197 97 l 1,3,-1
 568 97 l 1,4,-1
 568 0 l 1,5,-1
 78 0 l 1,6,-1
 78 97 l 1,7,-1
 429 624 l 1,8,-1
 450 640 l 1,9,-1
 78 640 l 1,10,-1
 78 737 l 1,11,-1
 568 737 l 1,0,-1
EndSplineSet
EndChar

StartChar: bracketleft
Encoding: 91 91 61
Width: 327
GlyphClass: 2
Flags: W
LayerCount: 2
Fore
SplineSet
270 676 m 1,0,-1
 167 676 l 1,1,-1
 167 19 l 1,2,-1
 270 19 l 1,3,-1
 270 -61 l 1,4,-1
 86 -61 l 1,5,-1
 86 757 l 1,6,-1
 270 757 l 1,7,-1
 270 676 l 1,0,-1
EndSplineSet
EndChar

StartChar: backslash
Encoding: 92 92 62
Width: 455
GlyphClass: 2
Flags: W
LayerCount: 2
Fore
SplineSet
34 799 m 1,0,-1
 115 799 l 1,1,-1
 422 -22 l 1,2,-1
 341 -22 l 1,3,-1
 34 799 l 1,0,-1
EndSplineSet
EndChar

StartChar: bracketright
Encoding: 93 93 63
Width: 327
GlyphClass: 2
Flags: W
LayerCount: 2
Fore
SplineSet
86 676 m 1,0,-1
 86 757 l 1,1,-1
 270 757 l 1,2,-1
 270 -61 l 1,3,-1
 86 -61 l 1,4,-1
 86 19 l 1,5,-1
 189 19 l 1,6,-1
 189 676 l 1,7,-1
 86 676 l 1,0,-1
EndSplineSet
EndChar

StartChar: grave
Encoding: 96 96 64
Width: 224
GlyphClass: 2
Flags: W
LayerCount: 2
Fore
SplineSet
24 777 m 1,0,-1
 145 777 l 1,1,-1
 213 635 l 1,2,-1
 132 635 l 1,3,-1
 24 777 l 1,0,-1
EndSplineSet
EndChar

StartChar: a
Encoding: 97 97 65
Width: 600
GlyphClass: 2
Flags: W
LayerCount: 2
Fore
SplineSet
184 170 m 0,0,1
 184 125 184 125 202.5 103 c 128,-1,2
 221 81 221 81 256 77 c 1,3,-1
 256 -4 l 1,4,5
 252 -5 252 -5 243 -5 c 0,6,7
 209 -5 209 -5 177.5 4 c 128,-1,8
 146 13 146 13 122 33 c 128,-1,9
 98 53 98 53 84.5 86 c 128,-1,10
 71 119 71 119 71 167 c 0,11,12
 71 213 71 213 90.5 246.5 c 128,-1,13
 110 280 110 280 140.5 301.5 c 128,-1,14
 171 323 171 323 210 333.5 c 128,-1,15
 249 344 249 344 289 344 c 2,16,-1
 333 344 l 1,17,-1
 333 273 l 1,18,-1
 311 273 l 2,19,20
 291 273 291 273 269 269 c 128,-1,21
 247 265 247 265 228 254 c 128,-1,22
 209 243 209 243 196.5 222.5 c 128,-1,23
 184 202 184 202 184 170 c 0,0,1
495 167 m 2,24,25
 495 159 495 159 496 143.5 c 128,-1,26
 497 128 497 128 500 112 c 128,-1,27
 503 96 503 96 509.5 83 c 128,-1,28
 516 70 516 70 527 66 c 1,29,-1
 495 -1 l 1,30,31
 482 -1 482 -1 467.5 5 c 128,-1,32
 453 11 453 11 439.5 22 c 128,-1,33
 426 33 426 33 416.5 46.5 c 128,-1,34
 407 60 407 60 402 76 c 1,35,36
 392 51 392 51 362.5 31.5 c 128,-1,37
 333 12 333 12 297 3 c 1,38,-1
 297 79 l 1,39,40
 321 84 321 84 340.5 98.5 c 128,-1,41
 360 113 360 113 374 133 c 1,42,-1
 374 344 l 2,43,44
 374 393 374 393 369 422 c 128,-1,45
 364 451 364 451 352 464.5 c 128,-1,46
 340 478 340 478 322.5 481.5 c 128,-1,47
 305 485 305 485 281 485 c 0,48,49
 259 485 259 485 239.5 479.5 c 128,-1,50
 220 474 220 474 203.5 466.5 c 128,-1,51
 187 459 187 459 174.5 450 c 128,-1,52
 162 441 162 441 156 436 c 1,53,-1
 111 505 l 1,54,55
 121 516 121 516 141 527.5 c 128,-1,56
 161 539 161 539 187 548 c 128,-1,57
 213 557 213 557 243.5 562.5 c 128,-1,58
 274 568 274 568 307 568 c 0,59,60
 337 568 337 568 365.5 562 c 128,-1,61
 394 556 394 556 417.5 542 c 128,-1,62
 441 528 441 528 458.5 504.5 c 128,-1,63
 476 481 476 481 483 446 c 256,64,65
 490 411 490 411 492.5 375.5 c 128,-1,66
 495 340 495 340 495 305 c 2,67,-1
 495 175 l 1,68,-1
 495 167 l 2,24,25
EndSplineSet
EndChar

StartChar: b
Encoding: 98 98 66
Width: 641
GlyphClass: 2
Flags: W
LayerCount: 2
Fore
SplineSet
86 777 m 1,0,-1
 207 777 l 1,1,-1
 207 67 l 1,2,3
 206 53 206 53 204 35 c 128,-1,4
 202 17 202 17 201 0 c 1,5,-1
 86 0 l 1,6,-1
 86 777 l 1,0,-1
579 393 m 0,7,8
 591 347 591 347 591 292 c 0,9,10
 591 235 591 235 577.5 181 c 128,-1,11
 564 127 564 127 536.5 85.5 c 128,-1,12
 509 44 509 44 467.5 19.5 c 128,-1,13
 426 -5 426 -5 370 -5 c 0,14,15
 335 -5 335 -5 303 3 c 128,-1,16
 271 11 271 11 248 25 c 1,17,-1
 248 129 l 1,18,19
 263 112 263 112 283.5 101 c 128,-1,20
 304 90 304 90 329 90 c 0,21,22
 359 90 359 90 383.5 105 c 128,-1,23
 408 120 408 120 425.5 145.5 c 128,-1,24
 443 171 443 171 453.5 206 c 128,-1,25
 464 241 464 241 464 281 c 0,26,27
 464 320 464 320 454.5 355 c 128,-1,28
 445 390 445 390 428.5 417 c 128,-1,29
 412 444 412 444 388 460 c 128,-1,30
 364 476 364 476 334 476 c 0,31,32
 308 476 308 476 286.5 465.5 c 128,-1,33
 265 455 265 455 248 435 c 1,34,-1
 248 542 l 1,35,36
 271 555 271 555 299 562 c 128,-1,37
 327 569 327 569 357 569 c 0,38,39
 390 569 390 569 424 560 c 128,-1,40
 458 551 458 551 487.5 530 c 128,-1,41
 517 509 517 509 541.5 475 c 128,-1,42
 566 441 566 441 579 393 c 0,7,8
EndSplineSet
EndChar

StartChar: c
Encoding: 99 99 67
Width: 585
GlyphClass: 2
Flags: W
LayerCount: 2
Fore
SplineSet
461 418 m 1,0,1
 446 436 446 436 419.5 451.5 c 128,-1,2
 393 467 393 467 349 470 c 1,3,-1
 349 566 l 1,4,5
 404 563 404 563 443.5 542.5 c 128,-1,6
 483 522 483 522 515 483 c 1,7,-1
 461 418 l 1,0,1
349 95 m 1,8,9
 385 99 385 99 410.5 112.5 c 128,-1,10
 436 126 436 126 459 144 c 1,11,-1
 504 79 l 1,12,13
 473 40 473 40 437 19.5 c 128,-1,14
 401 -1 401 -1 349 -4 c 1,15,-1
 349 95 l 1,8,9
70 282 m 256,16,17
 70 339 70 339 86.5 389 c 128,-1,18
 103 439 103 439 135 477 c 128,-1,19
 167 515 167 515 210.5 538.5 c 128,-1,20
 254 562 254 562 308 566 c 1,21,-1
 308 469 l 1,22,23
 258 458 258 458 228 407.5 c 128,-1,24
 198 357 198 357 198 285 c 0,25,26
 198 248 198 248 205.5 215.5 c 128,-1,27
 213 183 213 183 227 158 c 128,-1,28
 241 133 241 133 261.5 116 c 128,-1,29
 282 99 282 99 308 95 c 1,30,-1
 308 -4 l 1,31,32
 253 -1 253 -1 209 22.5 c 128,-1,33
 165 46 165 46 134 84.5 c 128,-1,34
 103 123 103 123 86.5 174 c 128,-1,35
 70 225 70 225 70 282 c 256,16,17
EndSplineSet
EndChar

StartChar: d
Encoding: 100 100 68
Width: 641
GlyphClass: 2
Flags: W
LayerCount: 2
Fore
SplineSet
556 777 m 1,0,-1
 556 0 l 1,1,-1
 441 0 l 1,2,-1
 434 67 l 1,3,-1
 434 777 l 1,4,-1
 556 777 l 1,0,-1
50 290 m 0,5,6
 50 368 50 368 71.5 421 c 128,-1,7
 93 474 93 474 127 507 c 128,-1,8
 161 540 161 540 202.5 554.5 c 128,-1,9
 244 569 244 569 284 569 c 0,10,11
 315 569 315 569 343 562 c 128,-1,12
 371 555 371 555 393 542 c 1,13,-1
 393 436 l 1,14,15
 376 454 376 454 355 465 c 128,-1,16
 334 476 334 476 308 476 c 0,17,18
 277 476 277 476 253 460.5 c 128,-1,19
 229 445 229 445 212.5 418 c 128,-1,20
 196 391 196 391 187 356 c 128,-1,21
 178 321 178 321 178 281 c 256,22,23
 178 241 178 241 188 206.5 c 128,-1,24
 198 172 198 172 215 146 c 128,-1,25
 232 120 232 120 256.5 105 c 128,-1,26
 281 90 281 90 310 90 c 0,27,28
 359 90 359 90 393 129 c 1,29,-1
 393 25 l 1,30,31
 369 12 369 12 337.5 3.5 c 128,-1,32
 306 -5 306 -5 271 -5 c 0,33,34
 231 -5 231 -5 192.5 9.5 c 128,-1,35
 154 24 154 24 124 57 c 0,36,37
 86 100 86 100 68 163.5 c 128,-1,38
 50 227 50 227 50 290 c 0,5,6
EndSplineSet
EndChar

StartChar: e
Encoding: 101 101 69
Width: 664
GlyphClass: 2
Flags: W
LayerCount: 2
Fore
SplineSet
348 569 m 1,0,1
 402 564 402 564 445.5 540 c 128,-1,2
 489 516 489 516 520 478 c 128,-1,3
 551 440 551 440 567.5 391 c 128,-1,4
 584 342 584 342 584 289 c 0,5,6
 584 265 584 265 581 241 c 1,7,-1
 238 241 l 1,8,-1
 238 329 l 1,9,-1
 469 329 l 1,10,11
 469 355 469 355 460.5 379 c 128,-1,12
 452 403 452 403 435.5 423.5 c 128,-1,13
 419 444 419 444 397 458 c 128,-1,14
 375 472 375 472 348 475 c 1,15,-1
 348 569 l 1,0,1
344 94 m 0,16,17
 355 94 355 94 371.5 96.5 c 128,-1,18
 388 99 388 99 406.5 105.5 c 128,-1,19
 425 112 425 112 443.5 122 c 128,-1,20
 462 132 462 132 476 146 c 1,21,-1
 520 79 l 1,22,23
 487 38 487 38 443 17 c 128,-1,24
 399 -4 399 -4 331 -4 c 0,25,26
 276 -4 276 -4 228 18.5 c 128,-1,27
 180 41 180 41 146 80 c 128,-1,28
 112 119 112 119 92 171 c 128,-1,29
 72 223 72 223 72 283 c 0,30,31
 72 340 72 340 90.5 391 c 128,-1,32
 109 442 109 442 141 480.5 c 128,-1,33
 173 519 173 519 215.5 543 c 128,-1,34
 258 567 258 567 307 570 c 1,35,-1
 307 474 l 1,36,37
 270 467 270 467 246 444 c 128,-1,38
 222 421 222 421 208.5 391.5 c 128,-1,39
 195 362 195 362 189.5 331 c 128,-1,40
 184 300 184 300 184 278 c 0,41,42
 184 239 184 239 193.5 205.5 c 128,-1,43
 203 172 203 172 223 147.5 c 128,-1,44
 243 123 243 123 272.5 108.5 c 128,-1,45
 302 94 302 94 344 94 c 0,16,17
EndSplineSet
EndChar

StartChar: f
Encoding: 102 102 70
Width: 471
GlyphClass: 2
Flags: W
LayerCount: 2
Fore
SplineSet
327 693 m 0,0,1
 307 693 307 693 293.5 683 c 128,-1,2
 280 673 280 673 271 655 c 128,-1,3
 262 637 262 637 258 613.5 c 128,-1,4
 254 590 254 590 253 564 c 1,5,-1
 340 564 l 1,6,-1
 340 482 l 1,7,-1
 251 482 l 1,8,-1
 251 434 l 1,9,-1
 251 0 l 1,10,-1
 129 0 l 1,11,-1
 129 434 l 1,12,-1
 129 482 l 1,13,-1
 55 482 l 1,14,-1
 55 564 l 1,15,-1
 131 564 l 1,16,17
 134 607 134 607 143 646.5 c 128,-1,18
 152 686 152 686 171.5 715.5 c 128,-1,19
 191 745 191 745 224.5 763 c 128,-1,20
 258 781 258 781 309 781 c 0,21,22
 324 781 324 781 341 778.5 c 128,-1,23
 358 776 358 776 374.5 772.5 c 128,-1,24
 391 769 391 769 405 764 c 128,-1,25
 419 759 419 759 427 753 c 1,26,-1
 388 681 l 1,27,28
 374 689 374 689 354.5 691 c 128,-1,29
 335 693 335 693 327 693 c 0,0,1
EndSplineSet
EndChar

StartChar: g
Encoding: 103 103 71
Width: 683
GlyphClass: 2
Flags: W
LayerCount: 2
Fore
SplineSet
291 -5 m 0,0,1
 235 -5 235 -5 193 19.5 c 128,-1,2
 151 44 151 44 123 85 c 128,-1,3
 95 126 95 126 82 179 c 128,-1,4
 69 232 69 232 69 290 c 0,5,6
 69 368 69 368 90.5 421 c 128,-1,7
 112 474 112 474 145.5 507.5 c 128,-1,8
 179 541 179 541 220.5 555 c 128,-1,9
 262 569 262 569 302 569 c 0,10,11
 333 569 333 569 361 562 c 128,-1,12
 389 555 389 555 412 542 c 1,13,-1
 412 436 l 1,14,15
 396 454 396 454 374.5 465 c 128,-1,16
 353 476 353 476 328 476 c 0,17,18
 298 476 298 476 273.5 460.5 c 128,-1,19
 249 445 249 445 232 419 c 128,-1,20
 215 393 215 393 206 358 c 128,-1,21
 197 323 197 323 197 284 c 0,22,23
 197 244 197 244 206.5 208.5 c 128,-1,24
 216 173 216 173 233.5 147 c 128,-1,25
 251 121 251 121 275.5 105.5 c 128,-1,26
 300 90 300 90 330 90 c 0,27,28
 355 90 355 90 375 100.5 c 128,-1,29
 395 111 395 111 412 128 c 1,30,-1
 412 24 l 1,31,32
 388 12 388 12 357 3.5 c 128,-1,33
 326 -5 326 -5 291 -5 c 0,0,1
574 564 m 1,34,-1
 573 0 l 1,35,36
 569 -61 569 -61 548.5 -104 c 128,-1,37
 528 -147 528 -147 496 -175 c 128,-1,38
 464 -203 464 -203 422 -215 c 128,-1,39
 380 -227 380 -227 332 -227 c 0,40,41
 276 -227 276 -227 221.5 -207.5 c 128,-1,42
 167 -188 167 -188 131 -142 c 1,43,-1
 201 -73 l 1,44,45
 211 -90 211 -90 226.5 -101 c 128,-1,46
 242 -112 242 -112 258.5 -118 c 128,-1,47
 275 -124 275 -124 291.5 -126.5 c 128,-1,48
 308 -129 308 -129 321 -129 c 0,49,50
 383 -129 383 -129 418 -93 c 128,-1,51
 453 -57 453 -57 453 30 c 2,52,-1
 453 507 l 1,53,-1
 466 564 l 1,54,-1
 574 564 l 1,34,-1
EndSplineSet
EndChar

StartChar: h
Encoding: 104 104 72
Width: 609
GlyphClass: 2
Flags: W
LayerCount: 2
Fore
SplineSet
86 777 m 1,0,-1
 207 777 l 1,1,-1
 207 0 l 1,2,-1
 86 0 l 1,3,-1
 86 777 l 1,0,-1
506 502 m 0,4,5
 523 485 523 485 532.5 462.5 c 128,-1,6
 542 440 542 440 546.5 415.5 c 128,-1,7
 551 391 551 391 552 366 c 128,-1,8
 553 341 553 341 553 317 c 2,9,-1
 553 20 l 1,10,-1
 553 0 l 1,11,-1
 431 0 l 1,12,-1
 431 307 l 2,13,14
 431 341 431 341 428 372 c 128,-1,15
 425 403 425 403 414 427 c 128,-1,16
 403 451 403 451 384 464.5 c 128,-1,17
 365 478 365 478 331 478 c 0,18,19
 317 478 317 478 293.5 473.5 c 128,-1,20
 270 469 270 469 248 459 c 1,21,-1
 248 536 l 1,22,23
 275 550 275 550 306.5 560 c 128,-1,24
 338 570 338 570 368 570 c 0,25,26
 413 570 413 570 444 551.5 c 128,-1,27
 475 533 475 533 506 502 c 0,4,5
EndSplineSet
EndChar

StartChar: i
Encoding: 105 105 73
Width: 291
GlyphClass: 2
Flags: W
LayerCount: 2
Fore
SplineSet
207 0 m 1,0,-1
 85 0 l 1,1,-1
 85 564 l 1,2,-1
 207 564 l 1,3,-1
 207 0 l 1,0,-1
218 744 m 256,4,5
 218 714 218 714 197 693.5 c 128,-1,6
 176 673 176 673 146 673 c 256,7,8
 116 673 116 673 95.5 694 c 128,-1,9
 75 715 75 715 75 744 c 0,10,11
 75 774 75 774 96 795 c 128,-1,12
 117 816 117 816 146 816 c 0,13,14
 176 816 176 816 197 795 c 128,-1,15
 218 774 218 774 218 744 c 256,4,5
EndSplineSet
EndChar

StartChar: j
Encoding: 106 106 74
Width: 327
GlyphClass: 2
Flags: W
LayerCount: 2
Fore
SplineSet
-4.5 -218 m 128,-1,1
 -39 -210 -39 -210 -56 -199 c 1,2,-1
 -17 -126 l 1,3,4
 -3 -134 -3 -134 16.5 -136.5 c 128,-1,5
 36 -139 36 -139 44 -139 c 0,6,7
 77 -139 77 -139 93 -112.5 c 128,-1,8
 109 -86 109 -86 114.5 -46 c 128,-1,9
 120 -6 120 -6 119.5 39 c 128,-1,10
 119 84 119 84 120 121 c 1,11,-1
 120 564 l 1,12,-1
 242 564 l 1,13,-1
 242 120 l 2,14,15
 242 82 242 82 242 41.5 c 128,-1,16
 242 1 242 1 237 -37.5 c 128,-1,17
 232 -76 232 -76 222 -110 c 128,-1,18
 212 -144 212 -144 192 -170 c 128,-1,19
 172 -196 172 -196 139.5 -211 c 128,-1,20
 107 -226 107 -226 60 -226 c 0,21,0
 30 -226 30 -226 -4.5 -218 c 128,-1,1
252 744 m 256,22,23
 252 714 252 714 231.5 693.5 c 128,-1,24
 211 673 211 673 181 673 c 256,25,26
 151 673 151 673 130.5 694 c 128,-1,27
 110 715 110 715 110 744 c 0,28,29
 110 774 110 774 131 795 c 128,-1,30
 152 816 152 816 181 816 c 0,31,32
 211 816 211 816 231.5 795 c 128,-1,33
 252 774 252 774 252 744 c 256,22,23
EndSplineSet
EndChar

StartChar: k
Encoding: 107 107 75
Width: 588
GlyphClass: 2
Flags: W
LayerCount: 2
Fore
SplineSet
327 283 m 1,0,-1
 551 0 l 1,1,-1
 413 0 l 1,2,-1
 249 216 l 1,3,-1
 249 355 l 1,4,-1
 389 564 l 1,5,-1
 525 564 l 1,6,-1
 327 283 l 1,0,-1
86 0 m 1,7,-1
 86 777 l 1,8,-1
 208 777 l 1,9,-1
 208 0 l 1,10,-1
 86 0 l 1,7,-1
EndSplineSet
EndChar

StartChar: l
Encoding: 108 108 76
Width: 363
GlyphClass: 2
Flags: W
LayerCount: 2
Fore
SplineSet
206 172 m 2,0,1
 206 138 206 138 215 118.5 c 128,-1,2
 224 99 224 99 240 89.5 c 128,-1,3
 256 80 256 80 276.5 77 c 128,-1,4
 297 74 297 74 321 74 c 1,5,-1
 321 0 l 1,6,7
 308 -2 308 -2 294 -3 c 0,8,9
 283 -4 283 -4 268 -4.5 c 128,-1,10
 253 -5 253 -5 238 -5 c 256,11,12
 223 -5 223 -5 208 -4 c 128,-1,13
 193 -3 193 -3 181 -1 c 0,14,15
 147 6 147 6 128 29 c 128,-1,16
 109 52 109 52 99 80.5 c 128,-1,17
 89 109 89 109 86.5 136 c 128,-1,18
 84 163 84 163 84 178 c 2,19,-1
 84 190 l 1,20,-1
 84 777 l 1,21,-1
 206 777 l 1,22,-1
 206 172 l 2,0,1
EndSplineSet
EndChar

StartChar: m
Encoding: 109 109 77
Width: 917
GlyphClass: 2
Flags: W
LayerCount: 2
Fore
SplineSet
195 564 m 1,0,-1
 208 506 l 1,1,-1
 208 0 l 1,2,-1
 86 0 l 1,3,-1
 86 564 l 1,4,-1
 195 564 l 1,0,-1
667 570 m 0,5,6
 701 570 701 570 731 556.5 c 128,-1,7
 761 543 761 543 783.5 518 c 128,-1,8
 806 493 806 493 818.5 458.5 c 128,-1,9
 831 424 831 424 831 384 c 2,10,-1
 831 0 l 1,11,-1
 711 0 l 1,12,-1
 711 307 l 2,13,14
 711 341 711 341 710.5 371.5 c 128,-1,15
 710 402 710 402 704 426 c 128,-1,16
 698 450 698 450 684.5 463.5 c 128,-1,17
 671 477 671 477 643 477 c 0,18,19
 636 477 636 477 613 474 c 128,-1,20
 590 471 590 471 560 457 c 1,21,-1
 560 536 l 1,22,23
 587 552 587 552 615 561 c 128,-1,24
 643 570 643 570 667 570 c 0,5,6
494 493 m 1,25,26
 506 475 506 475 511.5 454.5 c 128,-1,27
 517 434 517 434 518.5 412 c 128,-1,28
 520 390 520 390 519.5 366.5 c 128,-1,29
 519 343 519 343 519 317 c 2,30,-1
 519 0 l 1,31,-1
 398 0 l 1,32,-1
 398 307 l 2,33,34
 398 341 398 341 398 371.5 c 128,-1,35
 398 402 398 402 392 426 c 128,-1,36
 386 450 386 450 372 463.5 c 128,-1,37
 358 477 358 477 331 477 c 0,38,39
 319 477 319 477 295.5 472.5 c 128,-1,40
 272 468 272 468 249 457 c 1,41,-1
 249 536 l 1,42,43
 273 550 273 550 300.5 559 c 128,-1,44
 328 568 328 568 355 568 c 0,45,46
 401 568 401 568 432.5 549 c 128,-1,47
 464 530 464 530 494 493 c 1,25,26
EndSplineSet
EndChar

StartChar: n
Encoding: 110 110 78
Width: 634
GlyphClass: 2
Flags: W
LayerCount: 2
Fore
SplineSet
194 564 m 1,0,-1
 207 507 l 1,1,-1
 207 0 l 1,2,-1
 86 0 l 1,3,-1
 86 564 l 1,4,-1
 194 564 l 1,0,-1
506 502 m 0,5,6
 523 485 523 485 532.5 462.5 c 128,-1,7
 542 440 542 440 546.5 415.5 c 128,-1,8
 551 391 551 391 552 366 c 128,-1,9
 553 341 553 341 553 317 c 2,10,-1
 553 20 l 1,11,-1
 553 0 l 1,12,-1
 431 0 l 1,13,-1
 431 307 l 2,14,15
 431 341 431 341 428 372 c 128,-1,16
 425 403 425 403 414 427 c 128,-1,17
 403 451 403 451 384 464.5 c 128,-1,18
 365 478 365 478 331 478 c 0,19,20
 317 478 317 478 293.5 473.5 c 128,-1,21
 270 469 270 469 248 459 c 1,22,-1
 248 536 l 1,23,24
 275 550 275 550 306.5 560 c 128,-1,25
 338 570 338 570 368 570 c 0,26,27
 413 570 413 570 444 551.5 c 128,-1,28
 475 533 475 533 506 502 c 0,5,6
EndSplineSet
EndChar

StartChar: o
Encoding: 111 111 79
Width: 662
GlyphClass: 2
Flags: W
LayerCount: 2
Fore
SplineSet
351 567 m 1,0,1
 406 564 406 564 451 540.5 c 128,-1,2
 496 517 496 517 526.5 478.5 c 128,-1,3
 557 440 557 440 574 389 c 128,-1,4
 591 338 591 338 591 280 c 256,5,6
 591 222 591 222 573.5 171.5 c 128,-1,7
 556 121 556 121 525 83.5 c 128,-1,8
 494 46 494 46 449 23 c 128,-1,9
 404 0 404 0 351 -4 c 1,10,-1
 351 92 l 1,11,12
 401 103 401 103 432.5 155 c 128,-1,13
 464 207 464 207 464 280 c 0,14,15
 464 317 464 317 456.5 349.5 c 128,-1,16
 449 382 449 382 434 408 c 128,-1,17
 419 434 419 434 398 451 c 128,-1,18
 377 468 377 468 351 473 c 1,19,-1
 351 567 l 1,0,1
72 282 m 0,20,21
 72 340 72 340 89 390 c 128,-1,22
 106 440 106 440 137.5 477.5 c 128,-1,23
 169 515 169 515 213 538 c 128,-1,24
 257 561 257 561 310 566 c 1,25,-1
 310 473 l 1,26,27
 260 462 260 462 230 410 c 128,-1,28
 200 358 200 358 200 285 c 0,29,30
 200 248 200 248 207.5 215 c 128,-1,31
 215 182 215 182 229 156 c 128,-1,32
 243 130 243 130 263.5 113 c 128,-1,33
 284 96 284 96 310 92 c 1,34,-1
 310 -4 l 1,35,36
 255 0 255 0 211 23.5 c 128,-1,37
 167 47 167 47 136 85 c 128,-1,38
 105 123 105 123 88.5 174 c 128,-1,39
 72 225 72 225 72 282 c 0,20,21
EndSplineSet
EndChar

StartChar: p
Encoding: 112 112 80
Width: 640
GlyphClass: 2
Flags: W
LayerCount: 2
Fore
SplineSet
195 564 m 1,0,-1
 208 507 l 1,1,-1
 208 -222 l 1,2,-1
 86 -222 l 1,3,-1
 86 564 l 1,4,-1
 195 564 l 1,0,-1
579 393 m 0,5,6
 591 347 591 347 591 290 c 256,7,8
 591 233 591 233 577.5 179.5 c 128,-1,9
 564 126 564 126 536.5 85 c 128,-1,10
 509 44 509 44 467.5 19.5 c 128,-1,11
 426 -5 426 -5 370 -5 c 0,12,13
 335 -5 335 -5 303.5 3 c 128,-1,14
 272 11 272 11 249 24 c 1,15,-1
 249 128 l 1,16,17
 282 89 282 89 330 89 c 0,18,19
 360 89 360 89 384.5 104 c 128,-1,20
 409 119 409 119 426.5 144.5 c 128,-1,21
 444 170 444 170 454 205.5 c 128,-1,22
 464 241 464 241 464 281 c 0,23,24
 464 320 464 320 455 355 c 128,-1,25
 446 390 446 390 429.5 417 c 128,-1,26
 413 444 413 444 389.5 460 c 128,-1,27
 366 476 366 476 335 476 c 0,28,29
 309 476 309 476 287.5 465.5 c 128,-1,30
 266 455 266 455 249 436 c 1,31,-1
 249 542 l 1,32,33
 272 555 272 555 300 562 c 128,-1,34
 328 569 328 569 358 569 c 0,35,36
 391 569 391 569 425 560 c 128,-1,37
 459 551 459 551 488.5 530 c 128,-1,38
 518 509 518 509 542 475 c 128,-1,39
 566 441 566 441 579 393 c 0,5,6
EndSplineSet
EndChar

StartChar: q
Encoding: 113 113 81
Width: 640
GlyphClass: 2
Flags: W
LayerCount: 2
Fore
SplineSet
50 290 m 0,0,1
 50 368 50 368 71.5 421 c 128,-1,2
 93 474 93 474 127 507.5 c 128,-1,3
 161 541 161 541 202.5 555 c 128,-1,4
 244 569 244 569 284 569 c 0,5,6
 315 569 315 569 343 562 c 128,-1,7
 371 555 371 555 393 542 c 1,8,-1
 393 436 l 1,9,10
 376 454 376 454 355 465 c 128,-1,11
 334 476 334 476 309 476 c 0,12,13
 279 476 279 476 254.5 460.5 c 128,-1,14
 230 445 230 445 213.5 419 c 128,-1,15
 197 393 197 393 187.5 358 c 128,-1,16
 178 323 178 323 178 284 c 0,17,18
 178 243 178 243 188 207.5 c 128,-1,19
 198 172 198 172 215.5 146 c 128,-1,20
 233 120 233 120 258 105 c 128,-1,21
 283 90 283 90 313 90 c 0,22,23
 337 90 337 90 357 100.5 c 128,-1,24
 377 111 377 111 393 128 c 1,25,-1
 393 24 l 1,26,27
 369 12 369 12 338 3.5 c 128,-1,28
 307 -5 307 -5 272 -5 c 0,29,30
 216 -5 216 -5 174 19.5 c 128,-1,31
 132 44 132 44 104.5 85 c 128,-1,32
 77 126 77 126 63.5 179.5 c 128,-1,33
 50 233 50 233 50 290 c 0,0,1
556 -66 m 2,34,35
 556 -78 556 -78 556 -91 c 128,-1,36
 556 -104 556 -104 559 -117 c 128,-1,37
 562 -130 562 -130 570 -142 c 128,-1,38
 578 -154 578 -154 593 -164 c 1,39,40
 591 -167 591 -167 586 -177.5 c 128,-1,41
 581 -188 581 -188 574 -200 c 0,42,43
 567 -213 567 -213 559 -230 c 1,44,45
 501 -222 501 -222 467.5 -178.5 c 128,-1,46
 434 -135 434 -135 434 -74 c 2,47,-1
 434 507 l 1,48,-1
 447 564 l 1,49,-1
 556 564 l 1,50,-1
 556 -66 l 2,34,35
EndSplineSet
EndChar

StartChar: r
Encoding: 114 114 82
Width: 446
GlyphClass: 2
Flags: W
LayerCount: 2
Fore
SplineSet
194 564 m 1,0,-1
 207 506 l 1,1,-1
 207 200 l 1,2,-1
 207 198 l 1,3,-1
 207 0 l 1,4,-1
 86 0 l 1,5,-1
 86 564 l 1,6,-1
 194 564 l 1,0,-1
248 539 m 1,7,8
 273 553 273 553 308 560.5 c 128,-1,9
 343 568 343 568 403 568 c 1,10,-1
 403 442 l 1,11,12
 375 450 375 450 335 451 c 0,13,14
 313 451 313 451 290.5 447.5 c 128,-1,15
 268 444 268 444 248 437 c 1,16,-1
 248 539 l 1,7,8
EndSplineSet
EndChar

StartChar: s
Encoding: 115 115 83
Width: 536
GlyphClass: 2
Flags: W
LayerCount: 2
Fore
SplineSet
73 403 m 0,0,1
 73 441 73 441 87 471.5 c 128,-1,2
 101 502 101 502 126 523.5 c 128,-1,3
 151 545 151 545 182.5 557.5 c 128,-1,4
 214 570 214 570 248 573 c 1,5,-1
 248 473 l 1,6,7
 222 468 222 468 207.5 452 c 128,-1,8
 193 436 193 436 193 407 c 0,9,10
 193 383 193 383 208.5 368.5 c 128,-1,11
 224 354 224 354 248 343 c 1,12,-1
 248 236 l 1,13,14
 231 241 231 241 213.5 247.5 c 128,-1,15
 196 254 196 254 179 262 c 0,16,17
 126 290 126 290 99.5 321 c 128,-1,18
 73 352 73 352 73 403 c 0,0,1
407 445 m 1,19,20
 380 459 380 459 349.5 466 c 128,-1,21
 319 473 319 473 289 475 c 1,22,-1
 289 574 l 1,23,24
 334 572 334 572 372 561.5 c 128,-1,25
 410 551 410 551 446 528 c 1,26,-1
 407 445 l 1,19,20
126 126 m 1,27,28
 146 112 146 112 173.5 100 c 128,-1,29
 201 88 201 88 243 88 c 2,30,-1
 248 88 l 1,31,-1
 248 -5 l 1,32,33
 223 -5 223 -5 202 -3.5 c 128,-1,34
 181 -2 181 -2 160.5 3.5 c 128,-1,35
 140 9 140 9 119 19 c 128,-1,36
 98 29 98 29 75 45 c 1,37,-1
 126 126 l 1,27,28
289 327 m 1,38,39
 319 317 319 317 350 305 c 128,-1,40
 381 293 381 293 406.5 275 c 128,-1,41
 432 257 432 257 448.5 230.5 c 128,-1,42
 465 204 465 204 465 164 c 0,43,44
 465 125 465 125 451 96 c 128,-1,45
 437 67 437 67 413.5 46 c 128,-1,46
 390 25 390 25 358 13 c 128,-1,47
 326 1 326 1 289 -3 c 1,48,-1
 289 92 l 1,49,50
 323 98 323 98 341.5 113.5 c 128,-1,51
 360 129 360 129 360 155 c 256,52,53
 360 181 360 181 339.5 195.5 c 128,-1,54
 319 210 319 210 289 221 c 1,55,-1
 289 327 l 1,38,39
EndSplineSet
EndChar

StartChar: t
Encoding: 116 116 84
Width: 418
GlyphClass: 2
Flags: W
LayerCount: 2
Fore
SplineSet
247 171 m 2,0,1
 247 137 247 137 256 118 c 128,-1,2
 265 99 265 99 281.5 89 c 128,-1,3
 298 79 298 79 318.5 76.5 c 128,-1,4
 339 74 339 74 362 74 c 1,5,-1
 362 0 l 1,6,7
 349 -2 349 -2 336 -3 c 0,8,9
 325 -4 325 -4 309.5 -4.5 c 128,-1,10
 294 -5 294 -5 279 -5 c 256,11,12
 264 -5 264 -5 248.5 -4 c 128,-1,13
 233 -3 233 -3 222 -1 c 0,14,15
 188 5 188 5 169 28.5 c 128,-1,16
 150 52 150 52 140.5 80.5 c 128,-1,17
 131 109 131 109 128.5 136 c 128,-1,18
 126 163 126 163 126 178 c 2,19,-1
 126 482 l 1,20,-1
 52 482 l 1,21,-1
 52 564 l 1,22,-1
 126 564 l 1,23,-1
 126 724 l 1,24,-1
 247 724 l 1,25,-1
 247 564 l 1,26,-1
 337 564 l 1,27,-1
 337 482 l 1,28,-1
 247 482 l 1,29,-1
 247 171 l 2,0,1
EndSplineSet
EndChar

StartChar: u
Encoding: 117 117 85
Width: 633
GlyphClass: 2
Flags: W
LayerCount: 2
Fore
SplineSet
204 257 m 2,0,1
 204 222 204 222 207 191.5 c 128,-1,2
 210 161 210 161 220 138 c 128,-1,3
 230 115 230 115 250 101 c 128,-1,4
 270 87 270 87 303 87 c 0,5,6
 316 87 316 87 340 91 c 128,-1,7
 364 95 364 95 386 104 c 1,8,-1
 386 30 l 1,9,10
 360 16 360 16 329.5 5.5 c 128,-1,11
 299 -5 299 -5 269 -5 c 0,12,13
 245 -5 245 -5 226 -0.5 c 128,-1,14
 207 4 207 4 190.5 13.5 c 128,-1,15
 174 23 174 23 159 35 c 128,-1,16
 144 47 144 47 129 62 c 0,17,18
 112 79 112 79 102 101.5 c 128,-1,19
 92 124 92 124 87.5 148.5 c 128,-1,20
 83 173 83 173 82.5 198 c 128,-1,21
 82 223 82 223 82 247 c 2,22,-1
 82 564 l 1,23,-1
 204 564 l 1,24,-1
 204 257 l 2,0,1
549 564 m 1,25,-1
 549 0 l 1,26,-1
 440 0 l 1,27,-1
 427 58 l 1,28,-1
 427 564 l 1,29,-1
 549 564 l 1,25,-1
EndSplineSet
EndChar

StartChar: v
Encoding: 118 118 86
Width: 671
GlyphClass: 2
Flags: W
LayerCount: 2
Fore
SplineSet
59 564 m 1,0,-1
 196 564 l 1,1,-1
 315 163 l 1,2,-1
 315 -4 l 1,3,-1
 257 -4 l 1,4,-1
 59 564 l 1,0,-1
476 564 m 1,5,-1
 612 564 l 1,6,-1
 414 -4 l 1,7,-1
 356 -4 l 1,8,-1
 356 163 l 1,9,-1
 476 564 l 1,5,-1
EndSplineSet
EndChar

StartChar: w
Encoding: 119 119 87
Width: 932
GlyphClass: 2
Flags: W
LayerCount: 2
Fore
SplineSet
731 564 m 1,0,-1
 862 564 l 1,1,-1
 703 -4 l 1,2,-1
 547 -4 l 1,3,-1
 487 229 l 1,4,-1
 487 564 l 1,5,-1
 531 564 l 1,6,-1
 626 94 l 1,7,-1
 731 564 l 1,0,-1
295 94 m 1,8,-1
 400 564 l 1,9,-1
 446 564 l 1,10,-1
 446 259 l 1,11,-1
 374 -4 l 1,12,-1
 217 -4 l 1,13,-1
 72 564 l 1,14,-1
 202 564 l 1,15,-1
 295 94 l 1,8,-1
EndSplineSet
EndChar

StartChar: x
Encoding: 120 120 88
Width: 680
GlyphClass: 2
Flags: W
LayerCount: 2
Fore
SplineSet
77 564 m 1,0,-1
 214 564 l 1,1,-1
 319 379 l 1,2,-1
 319 169 l 1,3,-1
 217 0 l 1,4,-1
 78 0 l 1,5,-1
 262 283 l 1,6,-1
 77 564 l 1,0,-1
604 564 m 1,7,-1
 419 283 l 1,8,-1
 603 0 l 1,9,-1
 464 0 l 1,10,-1
 360 182 l 1,11,-1
 360 395 l 1,12,-1
 467 564 l 1,13,-1
 604 564 l 1,7,-1
EndSplineSet
EndChar

StartChar: y
Encoding: 121 121 89
Width: 672
GlyphClass: 2
Flags: W
LayerCount: 2
Fore
SplineSet
630 564 m 1,0,1
 575 417 575 417 532 303.5 c 128,-1,2
 489 190 489 190 457 104.5 c 128,-1,3
 425 19 425 19 400.5 -40 c 128,-1,4
 376 -99 376 -99 355.5 -138.5 c 128,-1,5
 335 -178 335 -178 317 -200.5 c 128,-1,6
 299 -223 299 -223 280 -235 c 128,-1,7
 261 -247 261 -247 238.5 -249.5 c 128,-1,8
 216 -252 216 -252 187 -252 c 0,9,10
 178 -252 178 -252 166 -249.5 c 128,-1,11
 154 -247 154 -247 142.5 -243.5 c 128,-1,12
 131 -240 131 -240 122 -236.5 c 128,-1,13
 113 -233 113 -233 110 -232 c 1,14,15
 114 -214 114 -214 118 -198 c 0,16,17
 121 -184 121 -184 124.5 -171.5 c 128,-1,18
 128 -159 128 -159 130 -154 c 1,19,20
 138 -154 138 -154 154.5 -159 c 128,-1,21
 171 -164 171 -164 179 -164 c 0,22,23
 195 -164 195 -164 207.5 -162.5 c 128,-1,24
 220 -161 220 -161 230 -153.5 c 128,-1,25
 240 -146 240 -146 249 -131.5 c 128,-1,26
 258 -117 258 -117 269 -90 c 2,27,-1
 307 0 l 1,28,-1
 508 564 l 1,29,-1
 630 564 l 1,0,1
286 53 m 1,30,-1
 76 564 l 1,31,-1
 197 564 l 1,32,-1
 341 185 l 1,33,-1
 327 151 l 1,34,-1
 286 53 l 1,30,-1
EndSplineSet
EndChar

StartChar: z
Encoding: 122 122 90
Width: 601
GlyphClass: 2
Flags: W
LayerCount: 2
Fore
SplineSet
86 564 m 1,0,-1
 515 564 l 1,1,-1
 515 467 l 1,2,-1
 225 113 l 1,3,-1
 205 97 l 1,4,-1
 515 97 l 1,5,-1
 515 0 l 1,6,-1
 86 0 l 1,7,-1
 86 97 l 1,8,-1
 376 451 l 1,9,-1
 396 467 l 1,10,-1
 86 467 l 1,11,-1
 86 564 l 1,0,-1
EndSplineSet
EndChar

StartChar: bar
Encoding: 124 124 91
Width: 250
GlyphClass: 2
Flags: W
LayerCount: 2
Fore
SplineSet
167 -242 m 1,0,-1
 86 -242 l 1,1,-1
 86 809 l 1,2,-1
 167 809 l 1,3,-1
 167 -242 l 1,0,-1
EndSplineSet
EndChar

StartChar: cent
Encoding: 162 162 93
Width: 585
GlyphClass: 2
Flags: W
LayerCount: 2
Fore
SplineSet
327 94 m 0,0,1
 372 94 372 94 402.5 108.5 c 128,-1,2
 433 123 433 123 459 144 c 1,3,-1
 504 79 l 1,4,5
 475 43 475 43 442.5 22.5 c 128,-1,6
 410 2 410 2 364 -3 c 1,7,-1
 364 -82 l 1,8,-1
 283 -82 l 1,9,-1
 283 -1 l 1,10,11
 234 7 234 7 194.5 31.5 c 128,-1,12
 155 56 155 56 127 94 c 128,-1,13
 99 132 99 132 84.5 179.5 c 128,-1,14
 70 227 70 227 70 282 c 0,15,16
 70 336 70 336 85 383.5 c 128,-1,17
 100 431 100 431 128 468 c 128,-1,18
 156 505 156 505 195 530 c 128,-1,19
 234 555 234 555 283 563 c 1,20,-1
 283 647 l 1,21,-1
 364 647 l 1,22,-1
 364 565 l 1,23,24
 413 560 413 560 449 539.5 c 128,-1,25
 485 519 485 519 515 483 c 1,26,-1
 461 418 l 1,27,28
 444 438 444 438 414 454.5 c 128,-1,29
 384 471 384 471 332 471 c 0,30,31
 302 471 302 471 277 457 c 128,-1,32
 252 443 252 443 234.5 418 c 128,-1,33
 217 393 217 393 207.5 359 c 128,-1,34
 198 325 198 325 198 285 c 256,35,36
 198 245 198 245 206.5 210.5 c 128,-1,37
 215 176 215 176 232 150 c 128,-1,38
 249 124 249 124 272.5 109 c 128,-1,39
 296 94 296 94 327 94 c 0,0,1
EndSplineSet
EndChar

StartChar: sterling
Encoding: 163 163 94
Width: 526
GlyphClass: 2
Flags: W
LayerCount: 2
Fore
SplineSet
61 82 m 1,0,-1
 135 82 l 1,1,-1
 135 400 l 1,2,-1
 61 400 l 1,3,-1
 61 482 l 1,4,-1
 137 482 l 1,5,6
 137 516 137 516 140.5 559 c 128,-1,7
 144 602 144 602 161.5 641 c 128,-1,8
 179 680 179 680 215 708.5 c 128,-1,9
 251 737 251 737 315 742 c 0,10,11
 376 747 376 747 416.5 736 c 128,-1,12
 457 725 457 725 474 714 c 1,13,-1
 434 638 l 1,14,15
 420 646 420 646 390.5 650 c 128,-1,16
 361 654 361 654 333 654 c 0,17,18
 301 654 301 654 285.5 637.5 c 128,-1,19
 270 621 270 621 264.5 594.5 c 128,-1,20
 259 568 259 568 259 538 c 128,-1,21
 259 508 259 508 259 482 c 1,22,-1
 367 482 l 1,23,-1
 367 400 l 1,24,-1
 257 400 l 1,25,-1
 257 82 l 1,26,-1
 437 82 l 1,27,-1
 437 0 l 1,28,-1
 61 0 l 1,29,-1
 61 82 l 1,0,-1
EndSplineSet
EndChar

StartChar: currency
Encoding: 164 164 95
Width: 677
GlyphClass: 2
Flags: W
LayerCount: 2
Fore
SplineSet
220 560 m 1,0,1
 240 575 240 575 265 585.5 c 128,-1,2
 290 596 290 596 318 599 c 1,3,-1
 318 534 l 1,4,5
 277 524 277 524 252.5 480.5 c 128,-1,6
 228 437 228 437 228 378 c 0,7,8
 228 317 228 317 251.5 271 c 128,-1,9
 275 225 275 225 318 216 c 1,10,-1
 318 151 l 1,11,12
 259 156 259 156 219 187 c 1,13,-1
 150 103 l 1,14,-1
 78 175 l 1,15,-1
 166 248 l 1,16,17
 151 275 151 275 143 307 c 128,-1,18
 135 339 135 339 135 375 c 0,19,20
 135 446 135 446 167 501 c 1,21,-1
 78 573 l 1,22,-1
 150 645 l 1,23,-1
 220 560 l 1,0,1
544 374 m 0,24,25
 544 303 544 303 512 249 c 1,26,-1
 600 175 l 1,27,-1
 528 103 l 1,28,-1
 459 187 l 1,29,30
 439 172 439 172 413.5 162.5 c 128,-1,31
 388 153 388 153 359 151 c 1,32,-1
 359 217 l 1,33,34
 399 227 399 227 424.5 269.5 c 128,-1,35
 450 312 450 312 450 373 c 0,36,37
 450 404 450 404 443.5 431 c 128,-1,38
 437 458 437 458 425.5 479.5 c 128,-1,39
 414 501 414 501 397 515 c 128,-1,40
 380 529 380 529 359 535 c 1,41,-1
 359 599 l 1,42,43
 389 597 389 597 414 587.5 c 128,-1,44
 439 578 439 578 460 562 c 1,45,-1
 528 645 l 1,46,-1
 600 573 l 1,47,-1
 512 501 l 1,48,49
 544 446 544 446 544 374 c 0,24,25
EndSplineSet
EndChar

StartChar: yen
Encoding: 165 165 96
Width: 664
GlyphClass: 2
Flags: W
LayerCount: 2
Fore
SplineSet
607 737 m 1,0,-1
 452 427 l 1,1,-1
 562 427 l 1,2,-1
 562 345 l 1,3,-1
 411 345 l 1,4,-1
 404 331 l 1,5,-1
 247 331 l 1,6,-1
 241 345 l 1,7,-1
 102 345 l 1,8,-1
 102 427 l 1,9,-1
 203 427 l 1,10,-1
 58 737 l 1,11,-1
 196 737 l 1,12,-1
 323 407 l 1,13,-1
 333 407 l 1,14,-1
 470 737 l 1,15,-1
 607 737 l 1,0,-1
388 290 m 1,16,-1
 388 284 l 1,17,-1
 562 284 l 1,18,-1
 562 202 l 1,19,-1
 388 202 l 1,20,-1
 388 0 l 1,21,-1
 266 0 l 1,22,-1
 266 202 l 1,23,-1
 102 202 l 1,24,-1
 102 284 l 1,25,-1
 266 284 l 1,26,-1
 266 290 l 1,27,-1
 388 290 l 1,16,-1
EndSplineSet
EndChar

StartChar: dieresis
Encoding: 168 168 97
Width: 538
GlyphClass: 2
Flags: W
LayerCount: 2
Fore
SplineSet
459 711 m 256,0,1
 459 681 459 681 438 660 c 128,-1,2
 417 639 417 639 387 639 c 256,3,4
 357 639 357 639 336 660 c 128,-1,5
 315 681 315 681 315 711 c 256,6,7
 315 741 315 741 336 761.5 c 128,-1,8
 357 782 357 782 387 782 c 256,9,10
 417 782 417 782 438 761.5 c 128,-1,11
 459 741 459 741 459 711 c 256,0,1
162 711 m 256,12,13
 162 681 162 681 141 660 c 128,-1,14
 120 639 120 639 90 639 c 256,15,16
 60 639 60 639 39 660 c 128,-1,17
 18 681 18 681 18 711 c 256,18,19
 18 741 18 741 39 761.5 c 128,-1,20
 60 782 60 782 90 782 c 256,21,22
 120 782 120 782 141 761.5 c 128,-1,23
 162 741 162 741 162 711 c 256,12,13
EndSplineSet
EndChar

StartChar: guillemotleft
Encoding: 171 171 98
Width: 736
GlyphClass: 2
Flags: W
LayerCount: 2
Fore
SplineSet
402 534 m 1,0,-1
 213 302 l 1,1,-1
 77 302 l 1,2,-1
 265 534 l 1,3,-1
 402 534 l 1,0,-1
469 302 m 1,4,-1
 333 302 l 1,5,-1
 521 534 l 1,6,-1
 658 534 l 1,7,-1
 469 302 l 1,4,-1
77 261 m 1,8,-1
 214 261 l 1,9,-1
 401 31 l 1,10,-1
 262 31 l 1,11,-1
 77 261 l 1,8,-1
333 261 m 1,12,-1
 470 261 l 1,13,-1
 657 31 l 1,14,-1
 518 31 l 1,15,-1
 333 261 l 1,12,-1
EndSplineSet
EndChar

StartChar: acute
Encoding: 180 180 99
Width: 224
GlyphClass: 2
Flags: W
LayerCount: 2
Fore
SplineSet
213 777 m 1,0,-1
 104 635 l 1,1,-1
 24 635 l 1,2,-1
 91 777 l 1,3,-1
 213 777 l 1,0,-1
EndSplineSet
EndChar

StartChar: cedilla
Encoding: 184 184 100
Width: 294
GlyphClass: 2
Flags: W
LayerCount: 2
Fore
SplineSet
116 -71 m 1,0,1
 133 -64 133 -64 151 -63 c 0,2,3
 169 -63 169 -63 184.5 -71 c 128,-1,4
 200 -79 200 -79 210.5 -90.5 c 128,-1,5
 221 -102 221 -102 227 -116.5 c 128,-1,6
 233 -131 233 -131 233 -145 c 0,7,8
 233 -191 233 -191 202.5 -217 c 128,-1,9
 172 -243 172 -243 120 -243 c 1,10,-1
 120 -185 l 1,11,12
 174 -185 174 -185 174 -147 c 0,13,14
 174 -130 174 -130 159.5 -117.5 c 128,-1,15
 145 -105 145 -105 121 -105 c 0,16,17
 108 -105 108 -105 89 -111 c 1,18,-1
 48 -92 l 1,19,-1
 106 7 l 1,20,-1
 183 7 l 1,21,-1
 116 -71 l 1,0,1
EndSplineSet
EndChar

StartChar: guillemotright
Encoding: 187 187 101
Width: 736
GlyphClass: 2
Flags: W
LayerCount: 2
Fore
SplineSet
659 302 m 1,0,-1
 523 302 l 1,1,-1
 334 534 l 1,2,-1
 471 534 l 1,3,-1
 659 302 l 1,0,-1
403 302 m 1,4,-1
 267 302 l 1,5,-1
 78 534 l 1,6,-1
 215 534 l 1,7,-1
 403 302 l 1,4,-1
266 261 m 1,8,-1
 402 261 l 1,9,-1
 218 31 l 1,10,-1
 79 31 l 1,11,-1
 266 261 l 1,8,-1
335 31 m 1,12,-1
 522 261 l 1,13,-1
 658 261 l 1,14,-1
 474 31 l 1,15,-1
 335 31 l 1,12,-1
EndSplineSet
EndChar

StartChar: Eth
Encoding: 208 208 118
Width: 770
GlyphClass: 2
Flags: W
LayerCount: 2
Fore
SplineSet
96 737 m 1,0,-1
 216 737 l 1,1,-1
 216 0 l 1,2,-1
 96 0 l 1,3,-1
 96 318 l 1,4,-1
 7 318 l 1,5,-1
 7 420 l 1,6,-1
 96 420 l 1,7,-1
 96 737 l 1,0,-1
318 737 m 2,8,9
 411 737 411 737 481.5 707.5 c 128,-1,10
 552 678 552 678 598.5 629 c 128,-1,11
 645 580 645 580 668 517.5 c 128,-1,12
 691 455 691 455 691 389 c 0,13,14
 691 298 691 298 671.5 233.5 c 128,-1,15
 652 169 652 169 622 125.5 c 128,-1,16
 592 82 592 82 554.5 57 c 128,-1,17
 517 32 517 32 482 19.5 c 128,-1,18
 447 7 447 7 418 3.5 c 128,-1,19
 389 0 389 0 375 0 c 2,20,-1
 257 0 l 1,21,-1
 257 88 l 1,22,-1
 335 88 l 2,23,24
 457 88 457 88 511 166 c 128,-1,25
 565 244 565 244 565 392 c 0,26,27
 565 438 565 438 554 483 c 128,-1,28
 543 528 543 528 511.5 564.5 c 128,-1,29
 480 601 480 601 426 623.5 c 128,-1,30
 372 646 372 646 286 646 c 2,31,-1
 257 646 l 1,32,-1
 257 737 l 1,33,-1
 318 737 l 2,8,9
346 318 m 1,34,-1
 257 318 l 1,35,-1
 257 420 l 1,36,-1
 346 420 l 1,37,-1
 346 318 l 1,34,-1
EndSplineSet
EndChar

StartChar: multiply
Encoding: 215 215 125
Width: 601
GlyphClass: 2
Flags: W
LayerCount: 2
Fore
SplineSet
379 283 m 1,0,-1
 522 61 l 1,1,-1
 383 61 l 1,2,-1
 310 202 l 1,3,-1
 300 202 l 1,4,-1
 218 61 l 1,5,-1
 79 61 l 1,6,-1
 222 283 l 1,7,-1
 78 503 l 1,8,-1
 215 503 l 1,9,-1
 290 361 l 1,10,-1
 300 361 l 1,11,-1
 386 503 l 1,12,-1
 523 503 l 1,13,-1
 379 283 l 1,0,-1
EndSplineSet
EndChar

StartChar: Thorn
Encoding: 222 222 131
Width: 852
GlyphClass: 2
Flags: W
LayerCount: 2
Fore
SplineSet
91 737 m 1,0,-1
 211 737 l 1,1,-1
 211 0 l 1,2,-1
 91 0 l 1,3,-1
 91 737 l 1,0,-1
303 655 m 2,4,5
 350 655 350 655 396 640 c 128,-1,6
 442 625 442 625 478.5 595 c 128,-1,7
 515 565 515 565 537.5 522.5 c 128,-1,8
 560 480 560 480 560 427 c 0,9,10
 560 371 560 371 541 326 c 128,-1,11
 522 281 522 281 488 249.5 c 128,-1,12
 454 218 454 218 406 201 c 128,-1,13
 358 184 358 184 300 184 c 2,14,-1
 252 184 l 1,15,-1
 252 272 l 1,16,-1
 321 272 l 2,17,18
 343 272 343 272 364.5 279.5 c 128,-1,19
 386 287 386 287 404 304.5 c 128,-1,20
 422 322 422 322 433 352 c 128,-1,21
 444 382 444 382 444 427 c 0,22,23
 444 445 444 445 439 469 c 128,-1,24
 434 493 434 493 418.5 514.5 c 128,-1,25
 403 536 403 536 375 550 c 128,-1,26
 347 564 347 564 301 564 c 2,27,-1
 252 564 l 1,28,-1
 252 655 l 1,29,-1
 303 655 l 2,4,5
EndSplineSet
EndChar

StartChar: germandbls
Encoding: 223 223 132
Width: 655
GlyphClass: 2
Flags: W
LayerCount: 2
Fore
SplineSet
460 388 m 1,0,1
 483 385 483 385 504.5 373 c 128,-1,2
 526 361 526 361 543 339 c 128,-1,3
 560 317 560 317 571 285.5 c 128,-1,4
 582 254 582 254 582 213 c 0,5,6
 582 163 582 163 572 126.5 c 128,-1,7
 562 90 562 90 546.5 66 c 128,-1,8
 531 42 531 42 512 27.5 c 128,-1,9
 493 13 493 13 474 6 c 128,-1,10
 455 -1 455 -1 437.5 -3 c 128,-1,11
 420 -5 420 -5 409 -5 c 0,12,13
 367 -5 367 -5 340 -1.5 c 128,-1,14
 313 2 313 2 296.5 7 c 128,-1,15
 280 12 280 12 269.5 18.5 c 128,-1,16
 259 25 259 25 250 30 c 1,17,-1
 278 106 l 1,18,19
 295 98 295 98 319 89.5 c 128,-1,20
 343 81 343 81 391 81 c 0,21,22
 430 81 430 81 448.5 118.5 c 128,-1,23
 467 156 467 156 467 213 c 0,24,25
 467 240 467 240 459.5 263.5 c 128,-1,26
 452 287 452 287 438.5 304.5 c 128,-1,27
 425 322 425 322 406 331.5 c 128,-1,28
 387 341 387 341 366 341 c 2,29,-1
 295 341 l 1,30,-1
 295 422 l 1,31,-1
 351 422 l 2,32,33
 367 422 367 422 382.5 427.5 c 128,-1,34
 398 433 398 433 410.5 447.5 c 128,-1,35
 423 462 423 462 431.5 486 c 128,-1,36
 440 510 440 510 443 548 c 1,37,38
 443 624 443 624 411 656 c 128,-1,39
 379 688 379 688 330 688 c 0,40,41
 273 688 273 688 244 650 c 1,42,-1
 244 772 l 1,43,44
 262 777 262 777 282.5 779.5 c 128,-1,45
 303 782 303 782 327 782 c 0,46,47
 377 782 377 782 419 767.5 c 128,-1,48
 461 753 461 753 491 723.5 c 128,-1,49
 521 694 521 694 538 650 c 128,-1,50
 555 606 555 606 555 548 c 1,51,52
 552 521 552 521 543 494 c 128,-1,53
 534 467 534 467 521.5 445 c 128,-1,54
 509 423 509 423 493 407.5 c 128,-1,55
 477 392 477 392 460 388 c 1,0,1
81 396 m 2,56,57
 81 535 81 535 106.5 625.5 c 128,-1,58
 132 716 132 716 203 755 c 1,59,-1
 203 0 l 1,60,-1
 81 0 l 1,61,-1
 81 396 l 2,56,57
EndSplineSet
EndChar

StartChar: eth
Encoding: 240 240 148
Width: 645
GlyphClass: 2
Flags: W
LayerCount: 2
Fore
SplineSet
70 264 m 0,0,1
 70 305 70 305 85 347 c 128,-1,2
 100 389 100 389 129.5 422.5 c 128,-1,3
 159 456 159 456 200.5 477.5 c 128,-1,4
 242 499 242 499 294 500 c 1,5,-1
 294 409 l 1,6,7
 242 401 242 401 208.5 359 c 128,-1,8
 175 317 175 317 175 254 c 0,9,10
 175 189 175 189 208.5 145.5 c 128,-1,11
 242 102 242 102 294 94 c 1,12,-1
 294 -4 l 1,13,14
 258 -1 258 -1 218.5 14.5 c 128,-1,15
 179 30 179 30 146 61.5 c 128,-1,16
 113 93 113 93 91.5 142 c 128,-1,17
 70 191 70 191 70 264 c 0,0,1
477 671 m 1,18,19
 520 621 520 621 546 526.5 c 128,-1,20
 572 432 572 432 572 292 c 0,21,22
 572 230 572 230 558 177 c 128,-1,23
 544 124 544 124 514.5 84.5 c 128,-1,24
 485 45 485 45 440 21.5 c 128,-1,25
 395 -2 395 -2 335 -5 c 1,26,-1
 335 93 l 1,27,28
 362 97 362 97 384.5 110.5 c 128,-1,29
 407 124 407 124 423.5 145 c 128,-1,30
 440 166 440 166 449.5 193.5 c 128,-1,31
 459 221 459 221 459 254 c 0,32,33
 459 319 459 319 423.5 360 c 128,-1,34
 388 401 388 401 335 410 c 1,35,-1
 335 497 l 1,36,37
 375 492 375 492 405 475 c 128,-1,38
 435 458 435 458 446 436 c 0,39,40
 447 435 447 435 450 435 c 128,-1,41
 453 435 453 435 454 434 c 1,42,43
 453 479 453 479 442 525.5 c 128,-1,44
 431 572 431 572 409 602 c 1,45,-1
 351 545 l 1,46,-1
 280 616 l 1,47,-1
 327 665 l 1,48,49
 322 671 322 671 310.5 678 c 128,-1,50
 299 685 299 685 284.5 692 c 128,-1,51
 270 699 270 699 255 705.5 c 128,-1,52
 240 712 240 712 226 716 c 1,53,-1
 226 778 l 1,54,55
 254 778 254 778 281 773.5 c 128,-1,56
 308 769 308 769 331 762 c 128,-1,57
 354 755 354 755 371 747 c 128,-1,58
 388 739 388 739 396 733 c 1,59,-1
 463 799 l 1,60,-1
 535 727 l 1,61,-1
 477 671 l 1,18,19
EndSplineSet
EndChar

StartChar: divide
Encoding: 247 247 155
Width: 551
GlyphClass: 2
Flags: W
LayerCount: 2
Fore
SplineSet
511 343 m 1,0,-1
 511 242 l 1,1,-1
 44 242 l 1,2,-1
 44 343 l 1,3,-1
 511 343 l 1,0,-1
344 498 m 256,4,5
 344 468 344 468 323 447 c 128,-1,6
 302 426 302 426 272 426 c 256,7,8
 242 426 242 426 221.5 447 c 128,-1,9
 201 468 201 468 201 498 c 256,10,11
 201 528 201 528 222 548.5 c 128,-1,12
 243 569 243 569 272 569 c 0,13,14
 302 569 302 569 323 548.5 c 128,-1,15
 344 528 344 528 344 498 c 256,4,5
344 67 m 256,16,17
 344 37 344 37 323 16 c 128,-1,18
 302 -5 302 -5 272 -5 c 256,19,20
 242 -5 242 -5 221.5 16 c 128,-1,21
 201 37 201 37 201 67 c 256,22,23
 201 97 201 97 222 117.5 c 128,-1,24
 243 138 243 138 272 138 c 0,25,26
 302 138 302 138 323 117.5 c 128,-1,27
 344 97 344 97 344 67 c 256,16,17
EndSplineSet
EndChar

StartChar: thorn
Encoding: 254 254 161
Width: 625
GlyphClass: 2
Flags: W
LayerCount: 2
Fore
SplineSet
86 777 m 1,0,-1
 208 777 l 1,1,-1
 208 -222 l 1,2,-1
 86 -222 l 1,3,-1
 86 777 l 1,0,-1
579 393 m 0,4,5
 591 347 591 347 591 290 c 256,6,7
 591 233 591 233 577.5 179.5 c 128,-1,8
 564 126 564 126 536.5 85 c 128,-1,9
 509 44 509 44 467.5 19.5 c 128,-1,10
 426 -5 426 -5 370 -5 c 0,11,12
 335 -5 335 -5 303.5 3 c 128,-1,13
 272 11 272 11 249 24 c 1,14,-1
 249 128 l 1,15,16
 282 89 282 89 330 89 c 0,17,18
 360 89 360 89 384.5 104 c 128,-1,19
 409 119 409 119 426.5 144.5 c 128,-1,20
 444 170 444 170 454 205.5 c 128,-1,21
 464 241 464 241 464 281 c 0,22,23
 464 320 464 320 455 355 c 128,-1,24
 446 390 446 390 429.5 417 c 128,-1,25
 413 444 413 444 389.5 460 c 128,-1,26
 366 476 366 476 335 476 c 0,27,28
 309 476 309 476 287.5 465.5 c 128,-1,29
 266 455 266 455 249 436 c 1,30,-1
 249 542 l 1,31,32
 272 555 272 555 300 562 c 128,-1,33
 328 569 328 569 358 569 c 0,34,35
 391 569 391 569 425 560 c 128,-1,36
 459 551 459 551 488.5 530 c 128,-1,37
 518 509 518 509 542 475 c 128,-1,38
 566 441 566 441 579 393 c 0,4,5
EndSplineSet
EndChar

StartChar: dotlessi
Encoding: 305 305 163
Width: 291
GlyphClass: 2
Flags: W
LayerCount: 2
Fore
SplineSet
207 0 m 1,0,-1
 85 0 l 1,1,-1
 85 564 l 1,2,-1
 207 564 l 1,3,-1
 207 0 l 1,0,-1
EndSplineSet
EndChar

StartChar: Lslash
Encoding: 321 321 164
Width: 664
GlyphClass: 2
Flags: W
LayerCount: 2
Fore
SplineSet
381 514 m 1,0,-1
 453 442 l 1,1,-1
 113 204 l 1,2,-1
 41 275 l 1,3,-1
 381 514 l 1,0,-1
287 737 m 1,4,-1
 287 91 l 1,5,-1
 626 91 l 1,6,-1
 626 0 l 1,7,-1
 165 0 l 1,8,-1
 165 737 l 1,9,-1
 287 737 l 1,4,-1
EndSplineSet
EndChar

StartChar: lslash
Encoding: 322 322 165
Width: 495
GlyphClass: 2
Flags: W
LayerCount: 2
Fore
SplineSet
374 565 m 1,0,-1
 445 494 l 1,1,-1
 116 265 l 1,2,-1
 44 337 l 1,3,-1
 374 565 l 1,0,-1
248 172 m 2,4,5
 248 138 248 138 257 118.5 c 128,-1,6
 266 99 266 99 282 89.5 c 128,-1,7
 298 80 298 80 318.5 77 c 128,-1,8
 339 74 339 74 362 74 c 1,9,-1
 362 0 l 1,10,11
 349 -2 349 -2 336 -3 c 0,12,13
 325 -4 325 -4 310 -4.5 c 128,-1,14
 295 -5 295 -5 280 -5 c 256,15,16
 265 -5 265 -5 249.5 -4 c 128,-1,17
 234 -3 234 -3 223 -1 c 0,18,19
 189 6 189 6 170 29 c 128,-1,20
 151 52 151 52 141 80.5 c 128,-1,21
 131 109 131 109 128.5 136 c 128,-1,22
 126 163 126 163 126 178 c 2,23,-1
 126 190 l 1,24,-1
 126 777 l 1,25,-1
 248 777 l 1,26,-1
 248 172 l 2,4,5
EndSplineSet
EndChar

StartChar: circumflex
Encoding: 710 710 171
Width: 355
GlyphClass: 2
Flags: W
LayerCount: 2
Fore
SplineSet
132 777 m 1,0,-1
 157 777 l 1,1,-1
 157 677 l 1,2,-1
 134 635 l 1,3,-1
 24 635 l 1,4,-1
 132 777 l 1,0,-1
221 635 m 1,5,-1
 198 676 l 1,6,-1
 198 777 l 1,7,-1
 223 777 l 1,8,-1
 332 635 l 1,9,-1
 221 635 l 1,5,-1
EndSplineSet
EndChar

StartChar: caron
Encoding: 711 711 172
Width: 353
GlyphClass: 2
Flags: W
LayerCount: 2
Fore
SplineSet
23 777 m 1,0,-1
 133 777 l 1,1,-1
 156 735 l 1,2,-1
 156 635 l 1,3,-1
 131 635 l 1,4,-1
 23 777 l 1,0,-1
220 777 m 1,5,-1
 331 777 l 1,6,-1
 222 635 l 1,7,-1
 197 635 l 1,8,-1
 197 736 l 1,9,-1
 220 777 l 1,5,-1
EndSplineSet
EndChar

StartChar: breve
Encoding: 728 728 173
Width: 386
GlyphClass: 2
Flags: W
LayerCount: 2
Fore
SplineSet
194 695 m 256,0,1
 221 695 221 695 239.5 714 c 128,-1,2
 258 733 258 733 258 760 c 1,3,-1
 317 760 l 1,4,5
 317 734 317 734 307.5 711 c 128,-1,6
 298 688 298 688 281 671 c 128,-1,7
 264 654 264 654 241.5 644.5 c 128,-1,8
 219 635 219 635 194 635 c 0,9,10
 168 635 168 635 145 644.5 c 128,-1,11
 122 654 122 654 105 671 c 128,-1,12
 88 688 88 688 78.5 711 c 128,-1,13
 69 734 69 734 69 760 c 1,14,-1
 129 760 l 1,15,16
 129 733 129 733 148 714 c 128,-1,17
 167 695 167 695 194 695 c 256,0,1
EndSplineSet
EndChar

StartChar: dotaccent
Encoding: 729 729 174
Width: 285
GlyphClass: 2
Flags: W
LayerCount: 2
Fore
SplineSet
215 711 m 256,0,1
 215 681 215 681 194 660 c 128,-1,2
 173 639 173 639 143 639 c 256,3,4
 113 639 113 639 92.5 660 c 128,-1,5
 72 681 72 681 72 711 c 256,6,7
 72 741 72 741 93 761.5 c 128,-1,8
 114 782 114 782 143 782 c 0,9,10
 173 782 173 782 194 761.5 c 128,-1,11
 215 741 215 741 215 711 c 256,0,1
EndSplineSet
EndChar

StartChar: ring
Encoding: 730 730 175
Width: 390
GlyphClass: 2
Flags: W
LayerCount: 2
Fore
SplineSet
71 760 m 0,0,1
 71 783 71 783 79 803 c 128,-1,2
 87 823 87 823 101 839.5 c 128,-1,3
 115 856 115 856 134 867 c 128,-1,4
 153 878 153 878 174 882 c 1,5,-1
 174 820 l 1,6,7
 156 813 156 813 143.5 796.5 c 128,-1,8
 131 780 131 780 131 760 c 0,9,10
 131 738 131 738 143.5 722 c 128,-1,11
 156 706 156 706 174 698 c 1,12,-1
 174 637 l 1,13,14
 152 640 152 640 133.5 651.5 c 128,-1,15
 115 663 115 663 101 679 c 128,-1,16
 87 695 87 695 79 715.5 c 128,-1,17
 71 736 71 736 71 760 c 0,0,1
215 882 m 1,18,19
 238 879 238 879 256.5 867.5 c 128,-1,20
 275 856 275 856 289 840 c 128,-1,21
 303 824 303 824 311 803 c 128,-1,22
 319 782 319 782 319 760 c 0,23,24
 319 736 319 736 311 715.5 c 128,-1,25
 303 695 303 695 289 679 c 128,-1,26
 275 663 275 663 256.5 651.5 c 128,-1,27
 238 640 238 640 215 636 c 1,28,-1
 215 698 l 1,29,30
 235 704 235 704 247.5 721 c 128,-1,31
 260 738 260 738 260 760 c 0,32,33
 260 780 260 780 248 797 c 128,-1,34
 236 814 236 814 215 820 c 1,35,-1
 215 882 l 1,18,19
EndSplineSet
EndChar

StartChar: ogonek
Encoding: 731 731 176
Width: 289
GlyphClass: 2
Flags: W
LayerCount: 2
Fore
SplineSet
227 16 m 1,0,1
 223 13 223 13 204.5 1.5 c 128,-1,2
 186 -10 186 -10 166 -27 c 128,-1,3
 146 -44 146 -44 130.5 -65.5 c 128,-1,4
 115 -87 115 -87 115 -111 c 0,5,6
 115 -133 115 -133 122 -147 c 128,-1,7
 129 -161 129 -161 140 -169.5 c 128,-1,8
 151 -178 151 -178 163.5 -182 c 128,-1,9
 176 -186 176 -186 187 -186 c 1,10,-1
 187 -224 l 1,11,12
 155 -224 155 -224 130.5 -215 c 128,-1,13
 106 -206 106 -206 89.5 -190 c 128,-1,14
 73 -174 73 -174 64 -153.5 c 128,-1,15
 55 -133 55 -133 55 -110 c 0,16,17
 55 -79 55 -79 76 -52 c 128,-1,18
 97 -25 97 -25 124 -4 c 0,19,20
 154 20 154 20 193 39 c 1,21,22
 204 35 204 35 214.5 26.5 c 128,-1,23
 225 18 225 18 227 16 c 1,0,1
EndSplineSet
EndChar

StartChar: tilde
Encoding: 732 732 177
Width: 406
GlyphClass: 2
Flags: W
LayerCount: 2
Fore
SplineSet
30 670 m 1,0,1
 37 687 37 687 48 703.5 c 128,-1,2
 59 720 59 720 73.5 733 c 128,-1,3
 88 746 88 746 105.5 754 c 128,-1,4
 123 762 123 762 143 762 c 0,5,6
 161 762 161 762 179.5 757 c 128,-1,7
 198 752 198 752 213.5 745 c 128,-1,8
 229 738 229 738 244 733 c 128,-1,9
 259 728 259 728 271 728 c 0,10,11
 288 728 288 728 299 736 c 128,-1,12
 310 744 310 744 318 770 c 1,13,-1
 383 751 l 1,14,15
 371 707 371 707 341 683.5 c 128,-1,16
 311 660 311 660 271 660 c 0,17,18
 254 660 254 660 237.5 665.5 c 128,-1,19
 221 671 221 671 205.5 677.5 c 128,-1,20
 190 684 190 684 175 689 c 128,-1,21
 160 694 160 694 143 694 c 0,22,23
 127 694 127 694 113.5 678.5 c 128,-1,24
 100 663 100 663 91 643 c 1,25,-1
 30 670 l 1,0,1
EndSplineSet
EndChar

StartChar: hungarumlaut
Encoding: 733 733 178
Width: 448
GlyphClass: 2
Flags: W
LayerCount: 2
Fore
SplineSet
213 777 m 1,0,-1
 104 635 l 1,1,-1
 24 635 l 1,2,-1
 91 777 l 1,3,-1
 213 777 l 1,0,-1
437 777 m 1,4,-1
 329 635 l 1,5,-1
 248 635 l 1,6,-1
 315 777 l 1,7,-1
 437 777 l 1,4,-1
EndSplineSet
EndChar

StartChar: endash
Encoding: 8211 8211 179
Width: 638
GlyphClass: 2
Flags: W
LayerCount: 2
Fore
SplineSet
553 343 m 1,0,-1
 553 242 l 1,1,-1
 86 242 l 1,2,-1
 86 343 l 1,3,-1
 553 343 l 1,0,-1
EndSplineSet
EndChar

StartChar: emdash
Encoding: 8212 8212 180
Width: 917
GlyphClass: 2
Flags: W
LayerCount: 2
Fore
SplineSet
831 343 m 1,0,-1
 831 242 l 1,1,-1
 86 242 l 1,2,-1
 86 343 l 1,3,-1
 831 343 l 1,0,-1
EndSplineSet
EndChar

StartChar: quoteleft
Encoding: 8216 8216 181
Width: 276
GlyphClass: 2
Flags: W
LayerCount: 2
Fore
SplineSet
134 483 m 256,0,1
 104 483 104 483 83 504 c 128,-1,2
 62 525 62 525 62 555 c 0,3,4
 62 560 62 560 63.5 578.5 c 128,-1,5
 65 597 65 597 73 623 c 128,-1,6
 81 649 81 649 100.5 680.5 c 128,-1,7
 120 712 120 712 157 742 c 1,8,-1
 204 742 l 1,9,10
 184 722 184 722 170.5 702 c 128,-1,11
 157 682 157 682 148 665 c 0,12,13
 138 646 138 646 134 627 c 1,14,15
 164 627 164 627 185 606 c 128,-1,16
 206 585 206 585 206 555 c 256,17,18
 206 525 206 525 185 504 c 128,-1,19
 164 483 164 483 134 483 c 256,0,1
EndSplineSet
EndChar

StartChar: quoteright
Encoding: 8217 8217 182
Width: 275
GlyphClass: 2
Flags: W
LayerCount: 2
Fore
SplineSet
142 742 m 256,0,1
 172 742 172 742 193 721 c 128,-1,2
 214 700 214 700 214 671 c 0,3,4
 214 666 214 666 213 647.5 c 128,-1,5
 212 629 212 629 204 603 c 128,-1,6
 196 577 196 577 176.5 545.5 c 128,-1,7
 157 514 157 514 120 483 c 1,8,-1
 73 483 l 1,9,10
 93 502 93 502 106 523 c 128,-1,11
 119 544 119 544 127 561 c 0,12,13
 136 580 136 580 142 599 c 1,14,15
 112 599 112 599 91.5 620 c 128,-1,16
 71 641 71 641 71 671 c 256,17,18
 71 701 71 701 91.5 721.5 c 128,-1,19
 112 742 112 742 142 742 c 256,0,1
EndSplineSet
EndChar

StartChar: quotedblleft
Encoding: 8220 8220 183
Width: 494
GlyphClass: 2
Flags: W
LayerCount: 2
Fore
SplineSet
344 483 m 256,0,1
 314 483 314 483 293 504 c 128,-1,2
 272 525 272 525 272 555 c 0,3,4
 272 560 272 560 273 578.5 c 128,-1,5
 274 597 274 597 282.5 623 c 128,-1,6
 291 649 291 649 310.5 680.5 c 128,-1,7
 330 712 330 712 367 742 c 1,8,-1
 414 742 l 1,9,10
 394 722 394 722 380.5 702 c 128,-1,11
 367 682 367 682 358 665 c 0,12,13
 348 646 348 646 344 627 c 1,14,15
 374 627 374 627 395 606 c 128,-1,16
 416 585 416 585 416 555 c 256,17,18
 416 525 416 525 395 504 c 128,-1,19
 374 483 374 483 344 483 c 256,0,1
150 483 m 256,20,21
 120 483 120 483 99 504 c 128,-1,22
 78 525 78 525 78 555 c 0,23,24
 78 560 78 560 79 578.5 c 128,-1,25
 80 597 80 597 88 623 c 128,-1,26
 96 649 96 649 115.5 680.5 c 128,-1,27
 135 712 135 712 172 742 c 1,28,-1
 219 742 l 1,29,30
 199 722 199 722 185.5 702 c 128,-1,31
 172 682 172 682 164 665 c 0,32,33
 154 646 154 646 150 627 c 1,34,35
 180 627 180 627 200.5 606 c 128,-1,36
 221 585 221 585 221 555 c 256,37,38
 221 525 221 525 200.5 504 c 128,-1,39
 180 483 180 483 150 483 c 256,20,21
EndSplineSet
EndChar

StartChar: quotedblright
Encoding: 8221 8221 184
Width: 493
GlyphClass: 2
Flags: W
LayerCount: 2
Fore
SplineSet
151 742 m 256,0,1
 181 742 181 742 201.5 721 c 128,-1,2
 222 700 222 700 222 671 c 0,3,4
 222 666 222 666 221 647.5 c 128,-1,5
 220 629 220 629 212 603 c 128,-1,6
 204 577 204 577 184.5 545.5 c 128,-1,7
 165 514 165 514 128 483 c 1,8,-1
 81 483 l 1,9,10
 101 502 101 502 114 523 c 128,-1,11
 127 544 127 544 135 561 c 0,12,13
 144 580 144 580 151 599 c 1,14,15
 121 599 121 599 100 620 c 128,-1,16
 79 641 79 641 79 671 c 256,17,18
 79 701 79 701 100 721.5 c 128,-1,19
 121 742 121 742 151 742 c 256,0,1
345 742 m 256,20,21
 375 742 375 742 396 721 c 128,-1,22
 417 700 417 700 417 671 c 0,23,24
 417 666 417 666 416 647.5 c 128,-1,25
 415 629 415 629 406.5 603 c 128,-1,26
 398 577 398 577 378.5 545.5 c 128,-1,27
 359 514 359 514 323 483 c 1,28,-1
 275 483 l 1,29,30
 295 502 295 502 308.5 523 c 128,-1,31
 322 544 322 544 330 561 c 0,32,33
 339 580 339 580 345 599 c 1,34,35
 315 599 315 599 294 620 c 128,-1,36
 273 641 273 641 273 671 c 256,37,38
 273 701 273 701 294 721.5 c 128,-1,39
 315 742 315 742 345 742 c 256,20,21
EndSplineSet
EndChar

StartChar: guilsinglleft
Encoding: 8249 8249 185
Width: 457
GlyphClass: 2
Flags: W
LayerCount: 2
Fore
SplineSet
180 283 m 1,0,-1
 385 31 l 1,1,-1
 246 31 l 1,2,-1
 44 283 l 1,3,-1
 249 534 l 1,4,-1
 386 534 l 1,5,-1
 180 283 l 1,0,-1
EndSplineSet
EndChar

StartChar: guilsinglright
Encoding: 8250 8250 186
Width: 457
GlyphClass: 2
Flags: W
LayerCount: 2
Fore
SplineSet
72 534 m 1,0,-1
 209 534 l 1,1,-1
 414 283 l 1,2,-1
 212 31 l 1,3,-1
 73 31 l 1,4,-1
 278 283 l 1,5,-1
 72 534 l 1,0,-1
EndSplineSet
EndChar

StartChar: Euro
Encoding: 8364 8364 187
Width: 678
GlyphClass: 2
Flags: W
LayerCount: 2
Fore
SplineSet
440 749 m 0,0,1
 532 749 532 749 603 702 c 1,2,-1
 562 595 l 1,3,4
 537 624 537 624 506.5 637 c 128,-1,5
 476 650 476 650 443 650 c 0,6,7
 386 650 386 650 339 615 c 128,-1,8
 292 580 292 580 269 496 c 1,9,-1
 525 496 l 1,10,-1
 495 414 l 1,11,-1
 257 414 l 1,12,13
 256 409 256 409 256 403.5 c 128,-1,14
 256 398 256 398 256 393 c 1,15,-1
 133 393 l 1,16,17
 133 398 133 398 133 403.5 c 128,-1,18
 133 409 133 409 134 414 c 1,19,-1
 54 414 l 1,20,-1
 85 496 l 1,21,-1
 145 496 l 1,22,23
 159 558 159 558 187 605.5 c 128,-1,24
 215 653 215 653 253.5 685 c 128,-1,25
 292 717 292 717 339.5 733 c 128,-1,26
 387 749 387 749 440 749 c 0,0,1
437 93 m 0,27,28
 473 93 473 93 505 106 c 128,-1,29
 537 119 537 119 562 148 c 1,30,-1
 562 18 l 1,31,32
 506 -6 506 -6 440 -5 c 0,33,34
 386 -5 386 -5 338.5 11 c 128,-1,35
 291 27 291 27 252.5 59 c 128,-1,36
 214 91 214 91 186.5 138.5 c 128,-1,37
 159 186 159 186 145 250 c 1,38,-1
 54 250 l 1,39,-1
 85 332 l 1,40,-1
 134 332 l 1,41,42
 133 337 133 337 133 342 c 128,-1,43
 133 347 133 347 133 352 c 1,44,-1
 255 352 l 1,45,46
 256 347 256 347 256 342 c 128,-1,47
 256 337 256 337 257 332 c 1,48,-1
 464 332 l 1,49,-1
 433 250 l 1,50,-1
 269 250 l 1,51,52
 291 167 291 167 336.5 130 c 128,-1,53
 382 93 382 93 437 93 c 0,27,28
EndSplineSet
EndChar

StartChar: aid
Encoding: 65541 -1 190
Width: 1090
GlyphClass: 2
Flags: W
LayerCount: 2
Fore
SplineSet
344 706 m 1,0,-1
 526 706 l 1,1,-1
 526 644 l 1,2,-1
 406 644 l 1,3,-1
 406 503 l 1,4,-1
 526 503 l 1,5,-1
 526 392 l 1,6,-1
 485 392 l 1,7,-1
 485 312 l 1,8,-1
 406 312 l 1,9,-1
 406 190 l 1,10,-1
 485 190 l 1,11,-1
 485 111 l 1,12,-1
 526 111 l 1,13,-1
 526 0 l 1,14,-1
 263 0 l 2,15,16
 210 0 210 0 183 12.5 c 128,-1,17
 156 25 156 25 145 45 c 128,-1,18
 134 65 134 65 133.5 90.5 c 128,-1,19
 133 116 133 116 133 142 c 2,20,-1
 133 422 l 2,21,22
 133 452 133 452 133.5 478 c 128,-1,23
 134 504 134 504 147 523 c 128,-1,24
 160 542 160 542 190.5 553 c 128,-1,25
 221 564 221 564 282 564 c 2,26,-1
 344 564 l 1,27,-1
 344 706 l 1,0,-1
959 142 m 2,28,29
 959 112 959 112 958.5 86 c 128,-1,30
 958 60 958 60 945 41.5 c 128,-1,31
 932 23 932 23 901 11.5 c 128,-1,32
 870 0 870 0 811 0 c 2,33,-1
 567 0 l 1,34,-1
 567 111 l 1,35,-1
 607 111 l 1,36,-1
 607 190 l 1,37,-1
 687 190 l 1,38,-1
 687 312 l 1,39,-1
 607 312 l 1,40,-1
 607 392 l 1,41,-1
 567 392 l 1,42,-1
 567 503 l 1,43,-1
 687 503 l 1,44,-1
 687 644 l 1,45,-1
 567 644 l 1,46,-1
 567 706 l 1,47,-1
 749 706 l 1,48,-1
 749 564 l 1,49,-1
 811 564 l 2,50,51
 850 564 850 564 878 559 c 128,-1,52
 906 554 906 554 924 538.5 c 128,-1,53
 942 523 942 523 950.5 495.5 c 128,-1,54
 959 468 959 468 959 422 c 2,55,-1
 959 142 l 2,28,29
EndSplineSet
EndChar

StartChar: food
Encoding: 65542 -1 191
Width: 568
GlyphClass: 2
Flags: W
LayerCount: 2
Fore
SplineSet
427 518 m 0,0,1
 409 500 409 500 390.5 490.5 c 128,-1,2
 372 481 372 481 357 478 c 0,3,4
 340 474 340 474 325 475 c 1,5,6
 324 490 324 490 328 508 c 0,7,8
 331 522 331 522 340 540 c 128,-1,9
 349 558 349 558 368 577 c 0,10,11
 386 595 386 595 404.5 603.5 c 128,-1,12
 423 612 423 612 437 616 c 0,13,14
 454 620 454 620 470 620 c 1,15,16
 471 605 471 605 467 587 c 0,17,18
 463 573 463 573 453.5 554.5 c 128,-1,19
 444 536 444 536 427 518 c 0,0,1
427 395 m 0,20,21
 409 377 409 377 390.5 367.5 c 128,-1,22
 372 358 372 358 357 355 c 0,23,24
 340 351 340 351 325 352 c 1,25,26
 324 366 324 366 328 384 c 0,27,28
 331 398 331 398 340 416.5 c 128,-1,29
 349 435 349 435 368 454 c 0,30,31
 386 472 386 472 404.5 480.5 c 128,-1,32
 423 489 423 489 437 494 c 1,33,34
 454 498 454 498 470 497 c 1,35,36
 471 482 471 482 467 464 c 0,37,38
 463 450 463 450 453.5 431.5 c 128,-1,39
 444 413 444 413 427 395 c 0,20,21
427 272 m 0,40,41
 409 254 409 254 390.5 245 c 128,-1,42
 372 236 372 236 357 232 c 0,43,44
 340 228 340 228 325 229 c 1,45,46
 324 243 324 243 328 261 c 0,47,48
 331 275 331 275 340 293.5 c 128,-1,49
 349 312 349 312 368 331 c 0,50,51
 386 349 386 349 404.5 358 c 128,-1,52
 423 367 423 367 437 371 c 0,53,54
 454 375 454 375 470 374 c 1,55,56
 471 359 471 359 467 341 c 0,57,58
 463 327 463 327 453.5 308.5 c 128,-1,59
 444 290 444 290 427 272 c 0,40,41
427 641 m 0,60,61
 409 623 409 623 390.5 613.5 c 128,-1,62
 372 604 372 604 357 601 c 0,63,64
 340 597 340 597 325 598 c 1,65,66
 324 613 324 613 328 631 c 0,67,68
 331 645 331 645 340 663.5 c 128,-1,69
 349 682 349 682 368 700 c 0,70,71
 386 717 386 717 404.5 726.5 c 128,-1,72
 423 736 423 736 437 739 c 0,73,74
 454 743 454 743 470 742 c 1,75,76
 471 727 471 727 467 710 c 0,77,78
 463 696 463 696 453.5 677.5 c 128,-1,79
 444 659 444 659 427 641 c 0,60,61
114 554.5 m 128,-1,81
 105 573 105 573 101 587 c 0,82,83
 97 605 97 605 98 620 c 1,84,85
 114 620 114 620 131 616 c 0,86,87
 145 612 145 612 164 603.5 c 128,-1,88
 183 595 183 595 201 577 c 0,89,90
 219 558 219 558 228 540 c 128,-1,91
 237 522 237 522 241 508 c 0,92,93
 245 490 245 490 244 475 c 1,94,95
 228 474 228 474 211 478 c 0,96,97
 197 481 197 481 178 490.5 c 128,-1,98
 159 500 159 500 141 518 c 256,99,80
 123 536 123 536 114 554.5 c 128,-1,81
114 431.5 m 128,-1,101
 105 450 105 450 101 464 c 0,102,103
 97 482 97 482 98 497 c 1,104,105
 114 498 114 498 131 494 c 1,106,107
 145 489 145 489 164 480.5 c 128,-1,108
 183 472 183 472 201 454 c 0,109,110
 219 435 219 435 228 416.5 c 128,-1,111
 237 398 237 398 241 384 c 0,112,113
 245 366 245 366 244 352 c 1,114,115
 228 351 228 351 211 355 c 0,116,117
 197 358 197 358 178 367.5 c 128,-1,118
 159 377 159 377 141 395 c 256,119,100
 123 413 123 413 114 431.5 c 128,-1,101
114 308.5 m 128,-1,121
 105 327 105 327 101 341 c 0,122,123
 97 359 97 359 98 374 c 1,124,125
 114 375 114 375 131 371 c 0,126,127
 145 367 145 367 164 358 c 128,-1,128
 183 349 183 349 201 331 c 0,129,130
 219 312 219 312 228 293.5 c 128,-1,131
 237 275 237 275 241 261 c 0,132,133
 245 243 245 243 244 229 c 1,134,135
 228 228 228 228 211 232 c 0,136,137
 197 236 197 236 178 245 c 128,-1,138
 159 254 159 254 141 272 c 256,139,120
 123 290 123 290 114 308.5 c 128,-1,121
114 677.5 m 128,-1,141
 105 696 105 696 101 710 c 0,142,143
 97 727 97 727 98 742 c 1,144,145
 114 743 114 743 131 739 c 0,146,147
 145 736 145 736 164 726.5 c 128,-1,148
 183 717 183 717 201 700 c 0,149,150
 219 682 219 682 228 663.5 c 128,-1,151
 237 645 237 645 241 631 c 0,152,153
 245 613 245 613 244 598 c 1,154,155
 228 597 228 597 211 601 c 0,156,157
 197 604 197 604 178 613.5 c 128,-1,158
 159 623 159 623 141 641 c 256,159,140
 123 659 123 659 114 677.5 c 128,-1,141
304 0 m 1,160,-1
 264 0 l 1,161,-1
 264 707 l 1,162,-1
 304 707 l 1,163,-1
 304 0 l 1,160,-1
EndSplineSet
EndChar

StartChar: up
Encoding: 65543 -1 192
Width: 820
GlyphClass: 2
Flags: W
LayerCount: 2
Fore
SplineSet
738 214 m 1,0,-1
 412 542 l 1,1,-1
 84 214 l 1,2,-1
 84 416 l 1,3,-1
 411 742 l 1,4,-1
 738 415 l 1,5,-1
 738 214 l 1,0,-1
472 423 m 1,6,-1
 472 0 l 1,7,-1
 350 0 l 1,8,-1
 350 423 l 1,9,-1
 412 483 l 1,10,-1
 472 423 l 1,6,-1
EndSplineSet
EndChar

StartChar: water
Encoding: 65544 -1 193
Width: 716
GlyphClass: 2
Flags: W
LayerCount: 2
Fore
SplineSet
359 742 m 1,0,1
 408 693 408 693 454.5 633 c 128,-1,2
 501 573 501 573 536 510 c 128,-1,3
 571 447 571 447 592.5 383 c 128,-1,4
 614 319 614 319 614 261 c 256,5,6
 614 203 614 203 596.5 153 c 128,-1,7
 579 103 579 103 545.5 67 c 128,-1,8
 512 31 512 31 465 10.5 c 128,-1,9
 418 -10 418 -10 359 -10 c 0,10,11
 301 -10 301 -10 253.5 10.5 c 128,-1,12
 206 31 206 31 172 67 c 128,-1,13
 138 103 138 103 120 153 c 128,-1,14
 102 203 102 203 102 261 c 256,15,16
 102 319 102 319 123.5 383 c 128,-1,17
 145 447 145 447 181 510 c 128,-1,18
 217 573 217 573 263 633 c 128,-1,19
 309 693 309 693 359 742 c 1,0,1
EndSplineSet
EndChar

StartChar: shelter
Encoding: 65545 -1 194
Width: 859
GlyphClass: 2
Flags: W
LayerCount: 2
Fore
SplineSet
369 0 m 1,0,-1
 369 221 l 1,1,-1
 490 221 l 1,2,-1
 490 0 l 1,3,-1
 369 0 l 1,0,-1
430 730 m 1,4,-1
 757 403 l 1,5,-1
 757 253 l 1,6,-1
 695 314 l 1,7,-1
 695 0 l 1,8,-1
 604 0 l 1,9,-1
 604 406 l 1,10,-1
 430 581 l 1,11,-1
 255 406 l 1,12,-1
 255 0 l 1,13,-1
 164 0 l 1,14,-1
 164 314 l 1,15,-1
 102 253 l 1,16,-1
 102 403 l 1,17,-1
 430 730 l 1,4,-1
EndSplineSet
EndChar

StartChar: transport
Encoding: 65546 -1 195
Width: 881
GlyphClass: 2
Flags: W
LayerCount: 2
Fore
SplineSet
140 588 m 2,0,1
 140 617 140 617 140.5 643 c 128,-1,2
 141 669 141 669 154.5 688.5 c 128,-1,3
 168 708 168 708 198 719 c 128,-1,4
 228 730 228 730 289 730 c 2,5,-1
 420 730 l 1,6,-1
 420 648 l 1,7,-1
 331 648 l 2,8,9
 288 648 288 648 265 639.5 c 128,-1,10
 242 631 242 631 231 616.5 c 128,-1,11
 220 602 220 602 218.5 583.5 c 128,-1,12
 217 565 217 565 217 546 c 0,13,14
 217 540 217 540 217 502.5 c 128,-1,15
 217 465 217 465 216 390 c 1,16,-1
 420 390 l 1,17,-1
 420 104 l 1,18,-1
 307 104 l 1,19,-1
 307 40 l 2,20,21
 307 35 307 35 306.5 27.5 c 128,-1,22
 306 20 306 20 301.5 13.5 c 128,-1,23
 297 7 297 7 288 2.5 c 128,-1,24
 279 -2 279 -2 260 -2 c 2,25,-1
 234 -2 l 2,26,27
 219 -2 219 -2 210.5 3 c 128,-1,28
 202 8 202 8 198 16 c 128,-1,29
 194 24 194 24 192.5 33 c 128,-1,30
 191 42 191 42 191 50 c 2,31,-1
 191 104 l 1,32,-1
 140 104 l 1,33,-1
 140 588 l 2,0,1
611 730 m 2,34,35
 664 730 664 730 691 718 c 128,-1,36
 718 706 718 706 729 686 c 128,-1,37
 740 666 740 666 740.5 640 c 128,-1,38
 741 614 741 614 741 588 c 2,39,-1
 741 104 l 1,40,-1
 690 104 l 1,41,-1
 690 40 l 2,42,43
 690 35 690 35 689.5 27.5 c 128,-1,44
 689 20 689 20 684.5 13.5 c 128,-1,45
 680 7 680 7 670 2.5 c 128,-1,46
 660 -2 660 -2 643 -2 c 2,47,-1
 616 -2 l 2,48,49
 601 -2 601 -2 592.5 3 c 128,-1,50
 584 8 584 8 579.5 16 c 128,-1,51
 575 24 575 24 574.5 33 c 128,-1,52
 574 42 574 42 574 50 c 2,53,-1
 574 104 l 1,54,-1
 461 104 l 1,55,-1
 461 390 l 1,56,-1
 666 390 l 1,57,-1
 666 548 l 2,58,59
 666 566 666 566 664.5 584 c 128,-1,60
 663 602 663 602 653.5 616.5 c 128,-1,61
 644 631 644 631 623.5 639.5 c 128,-1,62
 603 648 603 648 566 648 c 2,63,-1
 461 648 l 1,64,-1
 461 730 l 1,65,-1
 611 730 l 2,34,35
EndSplineSet
EndChar

StartChar: woman
Encoding: 65547 -1 196
Width: 467
GlyphClass: 2
Flags: W
LayerCount: 2
Fore
SplineSet
96 334 m 1,0,-1
 96 535 l 2,1,2
 96 547 96 547 96.5 557 c 128,-1,3
 97 567 97 567 101.5 575 c 128,-1,4
 106 583 106 583 116.5 587.5 c 128,-1,5
 127 592 127 592 147 594 c 1,6,-1
 147 334 l 1,7,-1
 96 334 l 1,0,-1
236 642 m 256,8,9
 206 642 206 642 185 663 c 128,-1,10
 164 684 164 684 164 714 c 256,11,12
 164 744 164 744 185 764.5 c 128,-1,13
 206 785 206 785 236 785 c 256,14,15
 266 785 266 785 286.5 764 c 128,-1,16
 307 743 307 743 307 714 c 0,17,18
 307 684 307 684 286.5 663 c 128,-1,19
 266 642 266 642 236 642 c 256,8,9
286 398 m 1,20,-1
 342 184 l 1,21,-1
 282 184 l 1,22,-1
 273 0 l 1,23,-1
 197 0 l 1,24,-1
 188 184 l 1,25,-1
 128 184 l 1,26,-1
 184 398 l 1,27,-1
 184 434 l 1,28,-1
 161 535 l 1,29,-1
 161 595 l 1,30,-1
 165 595 l 1,31,-1
 309 595 l 1,32,-1
 309 535 l 1,33,-1
 286 433 l 1,34,-1
 286 398 l 1,20,-1
323 595 m 1,35,36
 340 594 340 594 349.5 589.5 c 128,-1,37
 359 585 359 585 364.5 578 c 128,-1,38
 370 571 370 571 371.5 562.5 c 128,-1,39
 373 554 373 554 373 545 c 2,40,-1
 373 334 l 1,41,-1
 323 334 l 1,42,-1
 323 595 l 1,35,36
EndSplineSet
EndChar

StartChar: man
Encoding: 65548 -1 197
Width: 465
GlyphClass: 2
Flags: W
LayerCount: 2
Fore
SplineSet
94 550 m 1,0,1
 95 568 95 568 105 580.5 c 128,-1,2
 115 593 115 593 152 595 c 1,3,-1
 152 313 l 1,4,-1
 94 313 l 1,5,-1
 94 550 l 1,0,1
312 595 m 1,6,7
 336 595 336 595 348 589.5 c 128,-1,8
 360 584 360 584 365.5 574.5 c 128,-1,9
 371 565 371 565 371 553.5 c 128,-1,10
 371 542 371 542 371 529 c 2,11,-1
 371 313 l 1,12,-1
 312 313 l 1,13,-1
 312 595 l 1,6,7
232 785 m 256,14,15
 262 785 262 785 283 764 c 128,-1,16
 304 743 304 743 304 714 c 0,17,18
 304 684 304 684 283 663 c 128,-1,19
 262 642 262 642 232 642 c 256,20,21
 202 642 202 642 181.5 663 c 128,-1,22
 161 684 161 684 161 714 c 256,23,24
 161 744 161 744 181.5 764.5 c 128,-1,25
 202 785 202 785 232 785 c 256,14,15
171 595 m 1,26,-1
 293 595 l 1,27,-1
 293 0 l 1,28,-1
 171 0 l 1,29,-1
 171 595 l 1,26,-1
EndSplineSet
EndChar

StartChar: downright
Encoding: 65549 -1 198
Width: 827
GlyphClass: 2
Flags: W
LayerCount: 2
Fore
SplineSet
92 140 m 1,0,-1
 555 140 l 1,1,-1
 555 603 l 1,2,-1
 697 461 l 1,3,-1
 697 -1 l 1,4,-1
 234 -1 l 1,5,-1
 92 140 l 1,0,-1
428 181 m 1,6,-1
 129 480 l 1,7,-1
 215 566 l 1,8,-1
 514 267 l 1,9,-1
 514 181 l 1,10,-1
 428 181 l 1,6,-1
EndSplineSet
EndChar

StartChar: fruit
Encoding: 65550 -1 199
Width: 675
GlyphClass: 2
Flags: W
LayerCount: 2
Fore
SplineSet
347 523 m 0,0,1
 401 523 401 523 444 504 c 128,-1,2
 487 485 487 485 517 450.5 c 128,-1,3
 547 416 547 416 562.5 367.5 c 128,-1,4
 578 319 578 319 578 261 c 0,5,6
 578 212 578 212 561.5 164.5 c 128,-1,7
 545 117 545 117 515 79 c 128,-1,8
 485 41 485 41 442.5 18 c 128,-1,9
 400 -5 400 -5 347 -5 c 256,10,11
 294 -5 294 -5 251 18 c 128,-1,12
 208 41 208 41 178 79 c 128,-1,13
 148 117 148 117 132 164.5 c 128,-1,14
 116 212 116 212 116 261 c 0,15,16
 116 319 116 319 131 367.5 c 128,-1,17
 146 416 146 416 176 450.5 c 128,-1,18
 206 485 206 485 249 504 c 128,-1,19
 292 523 292 523 347 523 c 0,0,1
454 597 m 256,20,21
 436 579 436 579 417 569.5 c 128,-1,22
 398 560 398 560 384 557 c 0,23,24
 367 553 367 553 352 554 c 1,25,26
 351 569 351 569 355 587 c 0,27,28
 358 601 358 601 367 619 c 128,-1,29
 376 637 376 637 394 655 c 256,30,31
 412 673 412 673 431 682 c 128,-1,32
 450 691 450 691 464 695 c 0,33,34
 481 699 481 699 497 698 c 1,35,36
 498 683 498 683 494 666 c 0,37,38
 490 652 490 652 481 633.5 c 128,-1,39
 472 615 472 615 454 597 c 256,20,21
332 554 m 1,40,41
 310 553 310 553 288 558 c 0,42,43
 269 563 269 563 244 575 c 128,-1,44
 219 587 219 587 196 611 c 0,45,46
 171 636 171 636 159 660 c 128,-1,47
 147 684 147 684 142 703 c 0,48,49
 137 726 137 726 138 748 c 1,50,51
 158 748 158 748 181 742 c 0,52,53
 200 737 200 737 225 725.5 c 128,-1,54
 250 714 250 714 274 689 c 0,55,56
 299 664 299 664 311 640 c 128,-1,57
 323 616 323 616 328 597 c 0,58,59
 333 574 333 574 332 554 c 1,40,41
EndSplineSet
EndChar

StartChar: downleft
Encoding: 65551 -1 200
Width: 828
GlyphClass: 2
Flags: W
LayerCount: 2
Fore
SplineSet
273 603 m 1,0,-1
 273 140 l 1,1,-1
 736 140 l 1,2,-1
 594 -2 l 1,3,-1
 132 -2 l 1,4,-1
 132 461 l 1,5,-1
 273 603 l 1,0,-1
314 267 m 1,6,-1
 613 566 l 1,7,-1
 699 480 l 1,8,-1
 400 181 l 1,9,-1
 314 181 l 1,10,-1
 314 267 l 1,6,-1
EndSplineSet
EndChar

StartChar: right
Encoding: 65552 -1 201
Width: 897
GlyphClass: 2
Flags: W
LayerCount: 2
Fore
SplineSet
484 39 m 1,0,-1
 284 39 l 1,1,-1
 611 366 l 1,2,-1
 284 693 l 1,3,-1
 485 693 l 1,4,-1
 812 367 l 1,5,-1
 484 39 l 1,0,-1
553 366 m 1,6,-1
 493 305 l 1,7,-1
 70 305 l 1,8,-1
 70 427 l 1,9,-1
 493 427 l 1,10,-1
 553 366 l 1,6,-1
EndSplineSet
EndChar

StartChar: left
Encoding: 65553 -1 202
Width: 898
GlyphClass: 2
Flags: W
LayerCount: 2
Fore
SplineSet
413 693 m 1,0,-1
 613 693 l 1,1,-1
 286 367 l 1,2,-1
 613 39 l 1,3,-1
 412 39 l 1,4,-1
 85 366 l 1,5,-1
 413 693 l 1,0,-1
344 367 m 1,6,-1
 404 427 l 1,7,-1
 827 427 l 1,8,-1
 827 305 l 1,9,-1
 404 305 l 1,10,-1
 344 367 l 1,6,-1
EndSplineSet
EndChar

StartChar: down
Encoding: 65555 -1 204
Width: 820
GlyphClass: 2
Flags: W
LayerCount: 2
Fore
SplineSet
83 323 m 1,0,-1
 83 523 l 1,1,-1
 410 196 l 1,2,-1
 737 523 l 1,3,-1
 737 322 l 1,4,-1
 411 -5 l 1,5,-1
 83 323 l 1,0,-1
410 254 m 1,6,-1
 349 314 l 1,7,-1
 349 737 l 1,8,-1
 471 737 l 1,9,-1
 471 314 l 1,10,-1
 410 254 l 1,6,-1
EndSplineSet
EndChar

StartChar: upleft
Encoding: 65562 -1 211
Width: 827
GlyphClass: 2
Flags: W
LayerCount: 2
Fore
SplineSet
736 463 m 1,0,-1
 273 463 l 1,1,-1
 273 0 l 1,2,-1
 131 142 l 1,3,-1
 131 604 l 1,4,-1
 594 604 l 1,5,-1
 736 463 l 1,0,-1
400 422 m 1,6,-1
 699 123 l 1,7,-1
 613 37 l 1,8,-1
 314 336 l 1,9,-1
 314 422 l 1,10,-1
 400 422 l 1,6,-1
EndSplineSet
EndChar

StartChar: upright
Encoding: 65563 -1 212
Width: 826
GlyphClass: 2
Flags: W
LayerCount: 2
Fore
SplineSet
553 -1 m 1,0,-1
 553 462 l 1,1,-1
 90 462 l 1,2,-1
 232 604 l 1,3,-1
 694 604 l 1,4,-1
 694 141 l 1,5,-1
 553 -1 l 1,0,-1
512 335 m 1,6,-1
 213 36 l 1,7,-1
 127 122 l 1,8,-1
 426 421 l 1,9,-1
 512 421 l 1,10,-1
 512 335 l 1,6,-1
EndSplineSet
EndChar

